<?xml version="1.0" encoding="UTF-8" standalone="no"?>
<!-- Generator: Adobe Illustrator 22.0.1, SVG Export Plug-In . SVG Version: 6.00 Build 0)  -->

<svg
   version="1.1"
   id="Calque_1"
   x="0px"
   y="0px"
   viewBox="0 0 960 960"
   style="enable-background:new 0 0 960 960;"
   xml:space="preserve"
   sodipodi:docname="splash.svg"
   inkscape:version="1.2.2 (b0a8486541, 2022-12-01)"
   inkscape:export-filename="C:\All\Batocera\batocera-assets\logos\joystick-black-title-subtitle-outlined.png"
   inkscape:export-xdpi="192"
   inkscape:export-ydpi="192"
   xmlns:inkscape="http://www.inkscape.org/namespaces/inkscape"
   xmlns:sodipodi="http://sodipodi.sourceforge.net/DTD/sodipodi-0.dtd"
   xmlns="http://www.w3.org/2000/svg"
   xmlns:svg="http://www.w3.org/2000/svg"><defs
   id="defs93">
	
	
	
	
	
	
	
			
	
	
	
	
	
	

</defs><sodipodi:namedview
   id="namedview91"
   pagecolor="#808080"
   bordercolor="#666666"
   borderopacity="1.0"
   inkscape:pageshadow="2"
   inkscape:pageopacity="0"
   inkscape:pagecheckerboard="true"
   showgrid="false"
   inkscape:current-layer="Calque_1"
   inkscape:snap-global="true"
   inkscape:object-paths="false"
   inkscape:snap-nodes="false"
   inkscape:object-nodes="true"
   inkscape:snap-others="false"
   inkscape:snap-intersection-paths="false"
   inkscape:snap-bbox="true"
   inkscape:snap-smooth-nodes="false"
   inkscape:bbox-nodes="true"
   inkscape:showpageshadow="2"
   inkscape:deskcolor="#808080"
   inkscape:zoom="0.88229167"
   inkscape:cx="480"
   inkscape:cy="479.43329"
   inkscape:window-width="1920"
   inkscape:window-height="969"
   inkscape:window-x="0"
   inkscape:window-y="1117"
   inkscape:window-maximized="1" />



<g
   id="g473"
   transform="translate(-480.79734,-110.27931)"><g
     id="Layer 5"
     transform="matrix(0.913107,0,0,0.913107,502.197,90.1971)"
     style="clip-rule:evenodd;fill-rule:evenodd;stroke-linecap:round;stroke-linejoin:round;stroke-miterlimit:10">
        <path
   d="m 500.211,668.071 c -30.323,0 -59.834,-5.751 -83.096,-16.194 -25.388,-11.399 -42.74,-27.952 -50.18,-47.87 -3.317,-8.881 -26.62,-71.267 -38.544,-103.189 0.553,0.129 1.139,0.243 1.76,0.342 0.76,0.12 1.513,0.224 2.259,0.325 2.834,0.388 5.282,0.723 7.571,1.948 3.069,1.646 4.009,4.14 5.407,8.406 l 3.926,11.853 c 0.865,2.615 3.932,3.635 10.94,3.635 0.775,0 1.387,-0.015 1.703,-0.026 0.608,-0.018 1.212,-0.042 1.813,-0.064 1.425,-0.055 2.771,-0.106 4.116,-0.106 2.333,0 4.229,0.168 5.969,0.527 4.053,0.837 7.397,2.398 9.669,4.516 1.264,1.176 1.728,2.462 2.369,4.244 0.37,1.027 0.79,2.193 1.416,3.409 2.999,5.819 9.989,9.156 19.18,9.156 1.606,0 3.216,-0.103 4.786,-0.307 2.158,-0.281 4.226,-0.749 6.226,-1.202 2.608,-0.59 5.071,-1.146 7.594,-1.279 0.726,-0.038 1.454,-0.058 2.183,-0.058 3.423,0 6.744,0.425 9.871,1.262 4.11,1.1 7.392,2.738 9.754,4.87 0.608,0.54 1.161,1.069 1.705,1.588 1.782,1.7 3.624,3.459 6.305,4.768 3.97,1.941 8.602,2.968 13.392,2.968 4.994,0 9.978,-1.09 14.413,-3.154 l 0.859,-0.4 c 3.939,-1.839 7.341,-3.427 11.396,-4.139 2.395,-0.421 4.862,-0.635 7.332,-0.635 1.74,0 3.501,0.107 5.233,0.318 4.008,0.486 7.696,2.02 11.6,3.644 4.281,1.781 8.708,3.623 13.757,4.103 1.12,0.106 2.252,0.16 3.363,0.16 3.826,0 7.464,-0.619 10.811,-1.84 4.231,-1.541 6.866,-4.028 9.655,-6.662 l 0.729,-0.687 c 5.822,-5.459 14.668,-6.274 19.423,-6.274 0.814,0 1.641,0.023 2.456,0.069 2.85,0.162 5.603,0.698 8.517,1.264 3.475,0.676 7.068,1.374 10.81,1.374 2.715,0 5.219,-0.363 7.658,-1.111 5.5,-1.681 9.381,-4.978 10.926,-9.281 l 0.042,-0.12 0.033,-0.122 c 0.98,-3.677 2.224,-5.659 4.588,-7.311 2.752,-1.926 6.29,-3.157 10.518,-3.662 0.882,-0.105 1.849,-0.157 2.955,-0.157 1.156,0 2.309,0.054 3.531,0.11 1.235,0.057 2.512,0.116 3.806,0.116 0.905,0 1.726,-0.028 2.512,-0.088 l 0.504,-0.034 c 2.455,-0.164 7.025,-0.468 8.328,-4.299 l 2.238,-6.593 c 0.347,-1.021 0.659,-2.119 0.96,-3.181 0.815,-2.872 1.659,-5.843 3.219,-7.598 2.353,-2.651 6.268,-3.599 9.138,-3.928 l 0.632,-0.071 c 1.287,-0.144 2.692,-0.3 4.11,-0.599 l -39.163,102.872 c -7.581,19.923 -25.201,36.531 -50.954,48.027 -23.646,10.555 -53.487,16.367 -84.029,16.367"
   style="fill:#990033;fill-rule:nonzero"
   id="path131" />
        <path
   d="m 679.19,495.207 c -0.02,0.02 -0.038,0.039 -0.058,0.058 -0.052,0.053 -0.096,0.097 -0.102,0.104 0.051,-0.052 0.104,-0.105 0.16,-0.162 m 0.005,-0.005 -0.005,0.005 z m 0.008,-0.008 c -0.003,0.003 -0.006,0.005 -0.008,0.008 z m 0.028,-0.029 c -0.025,0.025 -0.069,0.069 -0.125,0.126 l 0.026,-0.026 c 0.032,-0.033 0.067,-0.068 0.099,-0.1 m 0.019,-0.02 c -0.006,0.007 -0.013,0.013 -0.019,0.02 0.005,-0.006 0.01,-0.01 0.014,-0.014 0.002,-0.002 0.003,-0.004 0.005,-0.006 m 0.006,-0.005 -0.011,0.011 c -0.015,0.015 -0.029,0.029 -0.042,0.043 0.037,-0.038 0.053,-0.054 0.053,-0.054 m -356.874,-1.833 c 10.275,27.504 38.095,101.982 41.743,111.75 16.484,44.131 76.185,66.014 136.086,66.014 60.402,0 121.008,-22.233 137.788,-66.326 3.913,-10.279 32.179,-84.528 42.4,-111.376 -0.256,0.667 -0.658,1.265 -1.149,1.776 0.054,-0.055 0.098,-0.099 0.098,-0.099 0,0 -0.042,0.044 -0.158,0.161 -0.118,0.119 -0.161,0.163 -0.161,0.163 0,0 0,-10e-4 10e-4,-10e-4 -0.652,0.658 -0.876,0.885 -0.876,0.885 -10e-4,0 0.65,-0.658 0.952,-0.963 -2.586,2.535 -6.439,2.815 -9.832,3.204 -3.99,0.457 -8.293,1.822 -11.039,4.915 -2.697,3.034 -3.5,8.047 -4.777,11.809 -0.746,2.197 -1.493,4.394 -2.238,6.591 -0.717,2.109 -4.176,2.155 -6.216,2.307 -0.763,0.057 -1.526,0.079 -2.288,0.079 -2.448,0 -4.887,-0.225 -7.336,-0.225 -1.101,0 -2.204,0.046 -3.311,0.177 -4.173,0.498 -8.408,1.752 -11.881,4.182 -3.318,2.318 -4.754,5.193 -5.769,8.998 -1.405,3.916 -5.169,6.262 -8.981,7.427 -2.315,0.71 -4.564,0.979 -6.779,0.979 -6.407,0 -12.531,-2.256 -19.157,-2.632 -0.861,-0.049 -1.739,-0.075 -2.626,-0.075 -7.581,0 -15.906,1.865 -21.475,7.086 -2.992,2.806 -5.378,5.269 -9.359,6.719 -3.12,1.138 -6.458,1.658 -9.784,1.658 -1.029,0 -2.058,-0.05 -3.078,-0.146 -9.008,-0.857 -16.254,-6.643 -25.28,-7.74 -1.855,-0.225 -3.725,-0.338 -5.595,-0.338 -2.631,0 -5.262,0.224 -7.85,0.679 -4.763,0.836 -8.68,2.764 -13.002,4.775 -4.018,1.869 -8.594,2.874 -13.147,2.874 -4.194,0 -8.37,-0.853 -12.076,-2.665 -3.027,-1.478 -4.874,-3.717 -7.316,-5.886 -3.068,-2.77 -7.036,-4.484 -10.989,-5.542 -3.464,-0.927 -7.06,-1.363 -10.646,-1.363 -0.781,0 -1.562,0.02 -2.341,0.061 -4.829,0.254 -9.296,1.884 -14.048,2.502 -1.37,0.178 -2.861,0.282 -4.401,0.282 -6.357,0 -13.549,-1.779 -16.512,-7.53 -1.583,-3.072 -1.69,-5.944 -4.407,-8.475 -3.033,-2.825 -7.098,-4.43 -11.108,-5.258 -2.221,-0.459 -4.395,-0.589 -6.575,-0.589 -1.988,0 -3.982,0.108 -6.025,0.173 -0.298,0.009 -0.876,0.023 -1.608,0.023 -2.739,0 -7.636,-0.197 -8.092,-1.578 -1.216,-3.67 -2.434,-7.344 -3.65,-11.015 -1.489,-4.495 -2.552,-8.499 -7.114,-10.945 -3.441,-1.843 -7.02,-1.996 -10.777,-2.592 -3.042,-0.482 -7.035,-1.69 -8.239,-4.89 m -0.007,-0.021 c 0.002,0.007 0.004,0.014 0.007,0.021 -0.002,-0.006 -0.005,-0.014 -0.007,-0.021 m 347.374,11.194 -14.869,39.058 -22.489,59.073 c -7.292,19.161 -24.365,35.19 -49.373,46.353 -23.269,10.388 -52.677,16.107 -82.807,16.107 -29.909,0 -58.983,-5.658 -81.867,-15.931 -24.64,-11.062 -41.445,-27.033 -48.599,-46.183 -3.156,-8.451 -24.414,-65.365 -36.74,-98.36 2.188,0.309 3.981,0.635 5.557,1.48 1.984,1.064 2.632,2.594 3.976,6.695 l 0.278,0.849 2.194,6.621 1.455,4.392 c 1.884,5.693 9.629,5.693 13.789,5.693 0.819,0 1.465,-0.016 1.798,-0.026 0.615,-0.02 1.226,-0.043 1.834,-0.067 1.396,-0.052 2.714,-0.103 4.001,-0.103 2.153,0 3.806,0.143 5.362,0.465 3.514,0.725 6.361,2.03 8.232,3.773 0.671,0.626 0.954,1.3 1.59,3.066 0.401,1.114 0.856,2.376 1.572,3.766 3.53,6.853 11.493,10.782 21.846,10.782 1.735,0 3.475,-0.112 5.175,-0.332 2.295,-0.298 4.433,-0.782 6.5,-1.25 2.479,-0.561 4.821,-1.09 7.088,-1.21 0.675,-0.036 1.357,-0.053 2.027,-0.053 3.16,0 6.22,0.389 9.095,1.159 3.647,0.975 6.513,2.389 8.556,4.232 0.536,0.477 1.057,0.973 1.608,1.498 1.856,1.773 3.961,3.781 7.055,5.291 4.381,2.143 9.468,3.276 14.713,3.276 5.428,0 10.849,-1.188 15.678,-3.434 l 0.864,-0.403 c 3.745,-1.749 6.98,-3.259 10.646,-3.903 2.223,-0.39 4.515,-0.588 6.811,-0.588 1.621,0 3.26,0.099 4.871,0.295 3.599,0.437 7.102,1.894 10.81,3.437 4.487,1.866 9.126,3.796 14.626,4.318 1.213,0.117 2.44,0.174 3.646,0.174 4.178,0 8.161,-0.679 11.838,-2.02 4.813,-1.754 7.8,-4.574 10.688,-7.3 l 0.721,-0.68 c 3.703,-3.471 10.035,-5.463 17.371,-5.463 0.759,0 1.528,0.022 2.285,0.065 2.649,0.15 5.304,0.667 8.116,1.214 3.614,0.702 7.351,1.428 11.382,1.428 3.018,0 5.81,-0.406 8.532,-1.241 6.431,-1.966 11.004,-5.921 12.876,-11.139 l 0.085,-0.237 0.065,-0.244 c 0.795,-2.98 1.655,-4.399 3.41,-5.627 2.309,-1.615 5.474,-2.701 9.152,-3.14 0.764,-0.09 1.615,-0.135 2.601,-0.135 1.086,0 2.206,0.051 3.392,0.106 1.27,0.059 2.582,0.119 3.944,0.119 0.981,0 1.876,-0.031 2.735,-0.095 l 0.481,-0.034 c 2.699,-0.179 9.022,-0.6 10.97,-6.33 l 1.04,-3.062 1.197,-3.528 c 0.371,-1.093 0.694,-2.229 1.006,-3.327 0.689,-2.428 1.471,-5.182 2.577,-6.426 1.316,-1.482 3.806,-2.513 7.027,-2.914"
   style="fill:#000000;fill-rule:nonzero"
   id="path133" />
        <path
   d="m 486.57,373.717 c -5.798,0 -11.038,2.226 -16.721,2.596 -5.54,0.36 -11.07,-0.589 -16.62,-0.163 -7.078,0.543 -13.094,4.383 -20.286,4.383 -6.62,0 -13.506,-0.119 -19.566,3.032 -9.896,5.146 -24.548,1.903 -32.729,10.362 -6.608,6.834 -19.073,3.395 -26.623,10.539 -1.955,1.849 -2.254,4.938 -4.737,5.791 -2.789,0.962 -5.698,1.555 -8.497,2.497 -5.488,1.845 -11.346,5.027 -13.479,10.791 -1.369,3.697 0.478,4.185 -3.259,5.723 -2.58,1.062 -5.095,2.312 -7.311,4.031 -4.057,3.147 -5.141,7.476 -5.728,12.625 -0.045,0.385 0.055,6.982 0.062,6.977 -1.953,1.587 -3.674,3.495 -4.921,5.692 -2.954,5.206 -2.38,10.751 -0.188,16.163 2.378,5.87 4.39,8.086 4.628,14.128 -0.254,2.897 1.142,5.907 2.197,8.499 4.497,11.04 7.058,19.472 20.468,19.756 2.711,0.057 3.985,10.701 4.994,13.384 2.488,6.617 8.448,11.168 15.163,12.968 9.083,2.435 23.411,-2.944 27.469,7.653 4.601,12.015 18.883,16.458 30.671,15.495 9.524,-0.778 23.516,-6.809 31.294,2.035 8.993,10.218 24.268,12.8 36.992,9.449 11.665,-3.071 20.225,-10.151 32.834,-5.296 13.919,5.359 26.79,10.092 41.148,2.281 10.104,-5.497 13.847,-13.152 26.988,-10.931 11.59,1.972 22.668,4.42 33.383,-2.305 7.818,-4.906 8.029,-16.224 17.389,-17.331 8.24,-0.973 16.248,0.981 24.062,-3.088 9.445,-4.917 11.642,-15.597 13.742,-25.155 8.314,-1.235 15.514,-3.491 18.556,-12.37 1.901,-4.201 3.848,-8.728 4.47,-13.339 0.276,-1.837 0.193,-3.714 -0.214,-5.522 1.367,-1.773 2.741,-3.35 3.712,-5.398 4.688,-9.883 3.601,-21.417 -5.948,-27.757 2.526,-9.049 -0.311,-15.448 -8.557,-20.227 -4.167,-2.414 -6.46,-2.018 -7.708,-6.569 -1.176,-4.218 -3.108,-7.525 -6.813,-9.7 -4.775,-2.798 -10.184,-3.321 -15.206,-5.394 -2.063,-5.372 -7.313,-8.553 -12.539,-10.276 -4.325,-1.426 -8.838,-1.615 -13.205,-2.779 -4.488,-1.205 -7.025,-5.394 -11.63,-7.067 -4.99,-1.813 -10.286,-1.98 -15.507,-2.528 -5.622,-0.591 -9.528,-4.003 -14.849,-5.383 -5.618,-1.476 -11.138,-1.096 -16.833,-1.439 -5.726,-0.344 -10.573,-3.338 -16.217,-4.059 -4.478,-0.572 -8.963,-0.191 -13.45,-0.014 -6.133,0.242 -11.661,-1.692 -17.675,-2.441 -5.668,-0.706 -11.21,0.355 -16.837,0.907 -5.586,0.547 -10.798,-1.226 -16.369,-1.226"
   style="fill:#000000;fill-rule:nonzero"
   id="path135" />
        <path
   d="m 469.081,572.037 c -7.497,0 -15.419,-2.484 -20.575,-8.461 -4.037,-4.681 -10.151,-6.65 -15.992,-7.268 -8.381,-0.884 -15.939,2.742 -24.206,2.742 -7.325,0 -15.847,-2.497 -19.748,-9.589 -1.485,-2.717 -1.476,-5.924 -3.764,-8.14 -3,-2.938 -7.333,-4.262 -11.318,-4.758 -7.856,-0.976 -15.578,1.515 -22.857,-3.102 -2.906,-1.84 -5.123,-4.741 -5.869,-8.278 -0.498,-1.847 -3.571,-12.466 -3.999,-14.722 -0.63,-3.321 -10.734,-1.053 -14.13,-2.993 -3.083,-1.76 -4.628,-6.443 -5.615,-8.63 -0.988,-2.187 -4.021,-8.994 -4.217,-11.134 0.506,-1.011 11.597,-3.306 11.597,-3.306 0,0 -1.938,-0.545 -5.328,-1.712 -3.391,-1.167 -7.352,-4.554 -8.342,-6.457 -0.991,-1.902 -5.679,-10.087 -4.228,-14.237 2.148,-2.686 12.982,-2.404 15.372,-4.405 -0.557,-0.676 -6.6,-5.167 -7.281,-6.098 -2.332,-3.183 -1.791,-10.222 0.622,-13.096 2.54,-3.027 13.616,-1.503 17.523,-3.803 1.512,-0.889 -5.425,-0.465 -4.064,-1.617 1.755,-1.484 1.058,-6.437 1.323,-8.558 1.089,-8.713 15.721,-5.96 21.303,-8.172 1.665,-0.662 3.247,0.798 4.644,-0.378 0.848,-0.718 0.768,-3.247 1.512,-4.419 1.947,-3.075 9.429,-7.078 12.666,-8.066 3.622,-1.104 3.61,1.148 7.218,-0.015 1.729,-0.558 3.593,-1.226 5.053,-2.383 1.209,-0.939 1.787,-2.77 3.19,-3.771 3.471,-2.475 7.241,-4.23 11.183,-5.056 4.015,-0.841 8.207,-0.73 12.528,-0.728 2.921,0.002 4.594,-3.319 7.409,-4.327 4.043,-1.973 6.78,-2.611 10.749,-3.076 3.565,0.197 8.55,1.286 11.996,0.297 3.077,-0.882 5.645,-2.719 8.849,-3.345 7.108,-1.388 14.16,0.755 21.289,-0.479 3.118,-0.542 5.961,-1.926 9.118,-2.323 3.733,-0.469 7.647,-0.36 11.297,0.616 7.392,2.003 14.26,-0.907 21.603,-0.821 5.477,0.064 10.233,2.447 15.601,2.96 6.566,0.622 12.967,-1.158 19.507,0.379 2.985,0.703 5.438,2.49 8.365,3.28 3.654,0.98 7.4,-0.331 11.144,-0.42 3.26,0.287 5.465,1.549 9.786,3.474 3.806,1.588 6.132,3.095 9.56,4.266 3.957,1.351 4.721,-0.616 9.044,-0.144 4.586,0.501 11.553,3.604 14.71,6.345 1.273,1.105 1.746,2.775 3.158,3.631 1.463,0.893 3.105,1.505 4.727,2.005 2.824,0.867 0.655,-1.735 3.552,-1.235 4.44,0.9 11.801,5.042 14.372,7.401 1.362,1.249 2.416,2.913 2.621,4.835 0.181,1.746 1.76,2.219 3.364,1.906 0.611,-0.119 1.246,-0.318 2.185,-0.087 3.462,1.12 11.945,-0.662 15.552,2.482 2.557,2.229 4.619,2.283 5.136,6.068 0.233,1.712 0.858,9.879 2.177,9.725 3.406,1.529 9.83,0.19 12.916,3.89 1.352,1.624 2.438,3.054 1.706,5.826 -0.735,2.771 -3.235,11.32 -2.564,11.835 3.224,2.464 8.326,1.673 9.752,5.239 1.53,3.824 -0.571,12.421 -2.826,14.949 -0.673,0.753 -4.229,5.343 -4.339,6.224 1.674,2.296 1.595,2.839 1.518,4.473 -0.078,1.634 -1.265,6.108 -4.109,12.448 -2.647,8.584 -12.75,6.817 -19.185,9.051 -0.622,3.424 -3.65,18.007 -6.304,21.432 -5.264,6.788 -14.066,6.267 -21.518,6.025 -3.779,-0.121 -7.664,0.43 -11.17,1.957 -1.619,0.704 -3.181,1.633 -4.47,2.885 -1.716,1.664 -2.003,3.442 -2.678,5.655 -2.389,7.822 -10.452,11.376 -17.652,12.049 -6.026,0.562 -11.302,-1.257 -17.146,-2.269 -5.677,-0.981 -11.702,-0.638 -17.173,1.294 -2.582,0.91 -5.127,2.215 -7.157,4.144 -1.906,1.821 -3.416,3.843 -5.611,5.343 -4.799,3.284 -10.631,4.685 -16.314,4.685 -5.812,0 -11.668,-1.472 -16.746,-4.46 -5.001,-2.922 -10.921,-4.038 -16.595,-4.038 -5.673,0.007 -11.606,1.107 -16.595,4.062 -5.101,3.013 -10.977,4.498 -16.812,4.498"
   style="fill:#990033;fill-rule:nonzero"
   id="path137" />
        <path
   d="m 468.332,553.273 c -7.672,0 -15.778,-2.256 -21.053,-7.681 -4.133,-4.25 -10.388,-6.038 -16.363,-6.598 -8.578,-0.803 -16.31,2.487 -24.772,2.487 -7.492,0 -16.213,-2.266 -20.206,-8.704 -1.52,-2.466 -1.508,-5.377 -3.851,-7.389 -3.068,-2.668 -7.503,-3.87 -11.58,-4.319 -8.04,-0.887 -15.94,1.376 -23.387,-2.817 -2.975,-1.67 -5.325,-4.289 -6.006,-7.515 -0.322,-1.558 -0.245,-3.16 0.162,-4.695 0.407,-1.519 1.276,-2.894 0.566,-4.463 -1.287,-2.849 -5.359,-4.035 -8.326,-4.502 -3.8,-0.599 -7.478,-0.66 -10.952,-2.422 -3.154,-1.598 -5.59,-4.389 -5.747,-7.833 -0.176,-3.877 2.308,-6.45 4.771,-9.232 2.495,-2.815 0.842,-4.762 -2.541,-5.587 -3.588,-0.873 -7.248,-2.811 -8.369,-6.334 -1.175,-3.671 1.052,-7.194 3.919,-9.571 2.471,-2.047 6.296,-3.233 7.912,-6.07 0.551,-0.971 -2.721,-2.413 -3.419,-3.258 -2.386,-2.891 -1.652,-6.612 0.816,-9.22 2.598,-2.747 6.196,-4.108 9.718,-5.504 1.64,-0.646 3.253,-1.436 4.646,-2.483 1.794,-1.349 0.486,-1.572 0.125,-3.485 -1.581,-8.4 11.66,-10.18 17.37,-12.189 1.705,-0.599 3.451,-1.324 4.88,-2.393 0.87,-0.652 0.79,-2.948 1.549,-4.012 1.992,-2.791 5.763,-4.199 9.076,-5.097 3.703,-1.001 7.579,-1.182 11.269,-2.239 1.77,-0.507 3.678,-1.113 5.172,-2.164 1.237,-0.852 1.828,-2.514 3.264,-3.422 7.168,-4.536 16.432,-2.578 24.26,-5.251 2.792,-0.954 4.7,-3.014 7.58,-3.929 3.91,-1.24 8.208,-1.632 12.315,-1.437 3.648,0.179 7.437,-0.187 10.962,-1.086 3.148,-0.799 5.776,-2.468 9.054,-3.036 7.274,-1.26 14.489,0.686 21.783,-0.435 3.19,-0.491 6.098,-1.748 9.331,-2.109 3.819,-0.425 7.826,-0.327 11.557,0.559 7.565,1.819 14.592,-0.823 22.105,-0.745 5.605,0.058 10.471,2.222 15.964,2.687 6.72,0.565 13.27,-1.05 19.962,0.346 3.052,0.636 5.565,2.258 8.561,2.975 3.736,0.891 7.524,1.053 11.354,0.971 3.447,-0.072 6.961,0.265 10.279,1.155 3.635,0.961 6.056,3.457 9.562,4.52 7.802,2.362 17.595,0.455 24.307,5.63 1.303,1.002 1.787,2.519 3.232,3.295 1.498,0.811 3.177,1.367 4.835,1.822 2.891,0.785 5.88,1.013 8.804,1.641 3.348,0.721 6.907,1.814 9.537,3.956 1.394,1.134 2.474,2.644 2.683,4.39 0.184,1.584 1.945,2.198 3.44,2.859 4.774,2.102 10.082,2.468 14.609,5.174 2.876,1.723 5.474,4.564 4.738,7.971 -0.298,1.375 -1.443,1.861 -0.208,2.891 1.49,1.24 3.324,2.133 5.156,2.858 5.44,2.153 15.598,6.935 11.082,14.027 -0.836,1.314 -2.119,2.318 -3.556,3.028 -1.021,0.507 0.17,1.441 0.739,2.015 2.556,2.573 6.255,3.765 8.724,6.483 2.378,2.593 3.499,6.186 1.705,9.349 -2.017,3.557 -5.74,3.938 -9.27,5.453 -3.851,1.654 -1.267,4.35 0.655,6.346 2.643,2.743 4.392,6.493 3.109,10.178 -2.709,7.795 -12.145,6.51 -18.729,8.537 -3.093,0.954 -6.799,3.23 -5.292,6.733 1.584,3.681 1.139,7.806 -1.575,10.915 -5.385,6.163 -14.393,5.689 -22.018,5.47 -3.867,-0.109 -7.843,0.39 -11.431,1.777 -1.655,0.64 -3.253,1.483 -4.573,2.619 -1.754,1.509 -2.047,3.125 -2.739,5.134 -2.444,7.1 -10.696,10.328 -18.064,10.939 -6.166,0.509 -11.564,-1.142 -17.54,-2.061 -5.813,-0.89 -11.977,-0.58 -17.576,1.173 -2.642,0.828 -5.246,2.012 -7.322,3.764 -1.952,1.652 -3.496,3.489 -5.742,4.85 -4.911,2.982 -10.88,4.253 -16.693,4.253 -5.946,0 -11.939,-1.337 -17.137,-4.049 -5.116,-2.652 -11.174,-3.665 -16.978,-3.665 -5.806,0.006 -11.878,1.005 -16.981,3.689 -5.22,2.733 -11.234,4.082 -17.203,4.082"
   style="fill:#cc0000;fill-rule:nonzero"
   id="path139" />
        <path
   d="m 547.879,431.47 c 0,12.271 -21.828,22.218 -48.753,22.218 -26.925,0 -48.753,-9.947 -48.753,-22.218 0,-12.271 21.828,-22.219 48.753,-22.218 26.925,0 48.753,9.948 48.753,22.218"
   style="fill:#000000;fill-rule:nonzero"
   id="path141" />
        <path
   d="m 552.523,511.846 c -5.437,0 -10.856,-0.981 -15.671,-2.839 -5.875,-2.266 -10.183,-5.647 -12.461,-9.779 -0.251,-0.454 -0.452,-0.791 -0.614,-1.062 -0.941,-1.573 -1.1,-2.17 -1.217,-4.559 l -0.218,-4.464 -0.328,-7.028 5.298,4.629 c 1.507,1.316 3.252,2.489 5.188,3.486 5.769,2.968 12.637,4.536 19.862,4.536 6.819,0 13.379,-1.405 18.972,-4.065 2.207,-1.048 4.205,-2.346 5.939,-3.857 l 5.358,-4.665 -0.392,7.094 c -0.074,1.326 -0.152,1.891 -0.221,2.39 -0.061,0.44 -0.114,0.819 -0.173,1.909 -0.369,7.216 -6.487,11.632 -10.1,13.621 -5.528,3.044 -12.175,4.653 -19.222,4.653"
   style="fill:#ffcc00;fill-rule:nonzero"
   id="path143" />
        <path
   d="m 518.689,475.227 0.656,14.056 c 0.042,0.898 0.086,1.796 0.131,2.693 l 0.087,1.773 c 0.133,2.715 0.365,3.826 1.639,5.957 0.148,0.248 0.334,0.557 0.566,0.978 2.618,4.75 7.462,8.599 14.003,11.122 5.158,1.988 10.95,3.04 16.752,3.04 7.552,0 14.699,-1.738 20.669,-5.025 7.183,-3.953 11.32,-9.673 11.65,-16.104 0.051,-0.948 0.093,-1.254 0.147,-1.641 0.09,-0.65 0.171,-1.296 0.245,-2.637 l 0.786,-14.189 -10.717,9.331 c -1.529,1.332 -3.297,2.479 -5.257,3.411 -5.193,2.469 -11.308,3.774 -17.684,3.774 -6.75,0 -13.144,-1.454 -18.49,-4.204 -1.719,-0.885 -3.262,-1.921 -4.586,-3.077 z m 6.649,13.776 c 1.643,1.435 3.566,2.749 5.789,3.894 6.19,3.184 13.53,4.869 21.235,4.869 7.261,0 14.267,-1.506 20.26,-4.355 2.574,-1.224 4.766,-2.689 6.621,-4.304 -0.134,2.417 -0.263,1.885 -0.393,4.304 -0.26,5.062 -4.391,8.864 -8.552,11.154 -5.268,2.9 -11.529,4.281 -17.775,4.281 -5.053,0 -10.096,-0.904 -14.592,-2.638 -4.27,-1.647 -8.64,-4.306 -10.912,-8.428 -1.282,-2.317 -1.338,-1.775 -1.463,-4.321 -0.072,-1.485 -0.148,-2.97 -0.218,-4.456"
   style="fill:#1d1d1b;fill-rule:nonzero"
   id="path145" />
        <path
   d="m 552.357,494.352 c -7.101,0 -13.863,-1.37 -19.555,-3.964 -7.956,-3.618 -12.117,-9.24 -11.416,-15.429 0.613,-5.448 4.961,-10.131 12.242,-13.189 5.512,-2.314 11.959,-3.537 18.644,-3.537 6.731,0 13.2,1.242 18.718,3.59 0.492,0.173 1.17,0.447 1.854,0.847 6.775,3.37 10.497,8.228 10.483,13.694 -0.006,5.897 -4.493,11.166 -12.312,14.448 -5.523,2.317 -11.975,3.54 -18.658,3.54"
   style="fill:#ffcc00;fill-rule:nonzero"
   id="path147" />
        <path
   d="m 552.273,455.233 c -7.08,0 -13.929,1.304 -19.806,3.771 -8.327,3.496 -13.321,9.044 -14.062,15.623 -0.844,7.447 4.075,14.362 13.158,18.493 6.076,2.768 13.269,4.232 20.795,4.232 7.078,0 13.931,-1.305 19.816,-3.772 8.989,-3.774 14.147,-10.049 14.154,-17.218 0.017,-6.636 -4.264,-12.433 -12.061,-16.334 -0.808,-0.464 -1.594,-0.79 -2.188,-1.003 -5.867,-2.481 -12.71,-3.792 -19.806,-3.792 m 0,6 c 6.378,0 12.457,1.167 17.639,3.391 0.486,0.164 1.029,0.399 1.498,0.684 3.655,1.799 8.932,5.377 8.918,11.048 -0.005,4.636 -3.822,8.898 -10.473,11.69 -5.157,2.163 -11.207,3.306 -17.497,3.306 -6.665,0 -13.002,-1.275 -18.312,-3.694 -6.691,-3.043 -10.224,-7.544 -9.678,-12.361 0.486,-4.323 4.194,-8.146 10.422,-10.76 5.157,-2.165 11.206,-3.304 17.483,-3.304"
   style="fill:#1d1d1b;fill-rule:nonzero"
   id="path149" />
        <path
   d="m 612.724,481.122 c -5.437,0 -10.856,-0.981 -15.672,-2.838 -5.874,-2.265 -10.182,-5.645 -12.46,-9.777 -0.251,-0.452 -0.452,-0.789 -0.614,-1.059 -0.94,-1.575 -1.099,-2.172 -1.219,-4.561 l -0.571,-11.503 5.319,4.636 c 1.513,1.32 3.261,2.493 5.195,3.489 5.764,2.967 12.632,4.535 19.861,4.535 6.815,0 13.375,-1.405 18.972,-4.066 2.201,-1.045 4.197,-2.343 5.934,-3.856 l 5.348,-4.66 -0.382,7.083 c -0.072,1.338 -0.15,1.905 -0.219,2.405 -0.061,0.441 -0.114,0.819 -0.173,1.902 -0.365,7.207 -6.481,11.626 -10.094,13.619 -5.532,3.044 -12.179,4.651 -19.225,4.651"
   style="fill:#669933;fill-rule:nonzero"
   id="path151" />
        <path
   d="m 578.839,444.486 0.704,14.096 c 0.074,1.48 0.147,2.959 0.218,4.441 0.137,2.722 0.369,3.831 1.641,5.963 0.149,0.248 0.334,0.557 0.566,0.977 2.62,4.751 7.463,8.598 14.004,11.121 5.157,1.987 10.95,3.038 16.752,3.038 7.551,0 14.698,-1.737 20.669,-5.022 7.186,-3.963 11.321,-9.682 11.646,-16.108 0.051,-0.934 0.094,-1.241 0.148,-1.63 0.093,-0.676 0.171,-1.301 0.244,-2.655 l 0.764,-14.167 -10.697,9.32 c -1.531,1.333 -3.297,2.48 -5.251,3.409 -5.197,2.469 -11.312,3.775 -17.684,3.775 -6.754,0 -13.147,-1.454 -18.489,-4.204 -1.718,-0.884 -3.265,-1.92 -4.596,-3.082 z m 6.697,13.796 c 1.642,1.432 3.565,2.747 5.792,3.893 6.185,3.184 13.528,4.869 21.235,4.869 7.262,0 14.265,-1.507 20.259,-4.356 2.575,-1.223 4.763,-2.688 6.618,-4.305 -0.131,2.418 -0.261,1.886 -0.393,4.305 -0.256,5.06 -4.388,8.862 -8.547,11.155 -5.268,2.899 -11.53,4.279 -17.776,4.279 -5.053,0 -10.097,-0.904 -14.593,-2.637 -4.271,-1.646 -8.642,-4.309 -10.913,-8.427 -1.281,-2.316 -1.336,-1.777 -1.463,-4.322 -0.072,-1.486 -0.145,-2.969 -0.219,-4.454"
   style="fill:#1d1d1b;fill-rule:nonzero"
   id="path153" />
        <path
   d="m 612.556,463.629 c -7.1,0 -13.861,-1.37 -19.555,-3.962 -7.95,-3.616 -12.111,-9.238 -11.416,-15.425 0.616,-5.454 4.965,-10.138 12.245,-13.194 5.517,-2.315 11.963,-3.538 18.641,-3.538 6.725,0 13.196,1.241 18.721,3.591 0.486,0.171 1.159,0.445 1.848,0.845 6.776,3.369 10.499,8.229 10.487,13.696 -0.006,5.897 -4.492,11.165 -12.309,14.449 -5.528,2.315 -11.98,3.538 -18.662,3.538"
   style="fill:#669933;fill-rule:nonzero"
   id="path155" />
        <path
   d="m 612.471,424.51 c -7.073,0 -13.92,1.305 -19.802,3.771 -8.327,3.495 -13.322,9.043 -14.064,15.624 -0.838,7.454 4.08,14.366 13.155,18.494 6.079,2.767 13.271,4.23 20.796,4.23 7.076,0 13.929,-1.304 19.817,-3.769 8.991,-3.778 14.147,-10.052 14.154,-17.219 0.014,-6.638 -4.269,-12.436 -12.068,-16.339 -0.81,-0.462 -1.591,-0.787 -2.177,-0.998 -5.875,-2.482 -12.72,-3.794 -19.811,-3.794 m 0,6 c 6.378,0 12.457,1.17 17.641,3.392 0.487,0.165 1.027,0.401 1.497,0.684 3.654,1.8 8.93,5.378 8.918,11.049 -0.005,4.634 -3.826,8.898 -10.471,11.69 -5.161,2.162 -11.212,3.304 -17.5,3.304 -6.665,0 -12.999,-1.273 -18.312,-3.692 -6.69,-3.043 -10.218,-7.546 -9.677,-12.36 0.488,-4.325 4.194,-8.148 10.424,-10.762 5.157,-2.164 11.203,-3.305 17.48,-3.305"
   style="fill:#1d1d1b;fill-rule:nonzero"
   id="path157" />
        <path
   d="m 499.38,439.947 c -6.906,0 -18.701,-2.721 -19.099,-12.917 -0.785,-20.08 -9.227,-120.754 -11.136,-143.387 l 60.908,0.233 c -3.313,42.823 -10.968,140.993 -11.574,145.019 -0.51,3.143 -3.02,6.169 -6.888,8.298 -3.232,1.775 -7.57,2.754 -12.211,2.754"
   style="fill:#ffffff;fill-rule:nonzero"
   id="path159" />
        <path
   d="m 464.791,279.627 c 0,0 10.62,125.223 11.493,147.56 0.452,11.578 11.924,16.76 23.096,16.76 5.301,0 10.324,-1.154 14.14,-3.25 4.952,-2.725 8.199,-6.796 8.909,-11.167 0.731,-4.478 11.944,-149.637 11.944,-149.637 z m 8.707,8.033 52.235,0.2 c -4.406,56.918 -10.585,135.621 -11.21,140.435 -0.325,1.857 -2.182,3.92 -4.854,5.391 -2.618,1.437 -6.368,2.261 -10.289,2.261 -0.602,0 -14.752,-0.103 -15.102,-9.073 -0.746,-19.067 -8.342,-110.219 -10.78,-139.214"
   style="fill:#000000;fill-rule:nonzero"
   id="path161" />
        <path
   d="m 579.406,217.769 c 0,44.042 -35.71,79.75 -79.746,79.75 -44.049,0 -79.756,-35.708 -79.756,-79.75 0,-44.043 35.707,-79.751 79.756,-79.751 44.036,0 79.746,35.708 79.746,79.751"
   style="fill:#1d1d1b;fill-rule:nonzero"
   id="path163" />
        <path
   d="m 552.282,265.441 c -28.4,28.403 -74.177,28.679 -102.236,0.622 -28.063,-28.065 -27.787,-73.841 0.615,-102.245 28.402,-28.403 74.179,-28.679 102.244,-0.615 28.059,28.056 27.781,73.834 -0.623,102.238"
   style="fill:#cc0000;fill-rule:nonzero"
   id="path165" />
        <path
   d="m 543.161,167.866 c 11.522,12.741 13.122,27.931 7.377,31.037 -5.793,3.217 -16.459,-3.226 -26.356,-11.753 -9.725,-8.631 -16.022,-19.18 -11.904,-26.507 4.005,-7.277 19.34,-5.566 30.883,7.223"
   style="fill:#ffffff;fill-rule:nonzero"
   id="path167" />
    </g><g
     id="Layer 17"
     transform="translate(460.604,27.1901)"
     style="clip-rule:evenodd;fill-rule:evenodd;stroke-linecap:round;stroke-linejoin:round;stroke-miterlimit:10">
        <path
   d="m 548.615,829.298 0.012,-0.031 0.123,-0.3 0.142,-0.324 0.15,-0.32 0.157,-0.315 0.164,-0.31 0.171,-0.304 0.178,-0.302 0.186,-0.297 0.191,-0.289 0.199,-0.286 0.204,-0.28 0.211,-0.274 0.217,-0.269 0.224,-0.265 0.231,-0.26 0.234,-0.251 0.24,-0.246 0.248,-0.243 0.253,-0.235 0.259,-0.23 0.265,-0.224 0.267,-0.215 0.276,-0.212 0.282,-0.206 0.283,-0.197 0.291,-0.192 0.296,-0.185 0.301,-0.178 0.305,-0.172 0.31,-0.164 0.315,-0.157 0.319,-0.15 0.324,-0.142 0.3,-0.123 0.194,-0.076 0.17,-0.063 0.165,-0.06 0.166,-0.057 0.172,-0.058 0.17,-0.054 0.171,-0.053 0.175,-0.051 0.171,-0.047 0.176,-0.047 0.177,-0.045 0.172,-0.041 0.18,-0.04 0.176,-0.038 0.176,-0.035 0.185,-0.034 0.177,-0.031 0.176,-0.028 0.185,-0.028 0.184,-0.024 0.18,-0.022 0.181,-0.02 0.184,-0.018 0.184,-0.015 0.183,-0.013 0.184,-0.01 0.187,-0.009 0.187,-0.006 0.182,-0.003 0.155,-10e-4 h 19.851 v -65.806 l -65.812,-0.002 v 65.808 h 19.054 l 0.155,10e-4 0.182,0.003 0.187,0.006 0.188,0.009 0.183,0.01 0.183,0.013 0.185,0.016 0.183,0.017 0.18,0.02 0.18,0.022 0.185,0.024 0.185,0.028 0.176,0.028 0.176,0.03 0.186,0.035 0.176,0.035 0.175,0.037 0.182,0.042 0.172,0.041 0.176,0.044 0.175,0.046 0.171,0.048 0.177,0.052 0.171,0.052 0.169,0.054 0.171,0.057 0.167,0.058 0.165,0.06 0.17,0.063 0.195,0.077 0.299,0.122 0.323,0.142 0.32,0.15 0.316,0.158 0.308,0.163 0.305,0.171 0.302,0.179 0.297,0.186 0.291,0.192 0.282,0.196 0.281,0.205 0.277,0.213 0.268,0.216 0.264,0.223 0.259,0.23 0.253,0.235 0.247,0.242 0.24,0.245 0.237,0.255 0.23,0.259 0.223,0.264 0.216,0.267 0.212,0.276 0.205,0.282 0.198,0.284 0.191,0.289 0.185,0.297 0.179,0.302 0.17,0.303 0.165,0.311 0.157,0.315 0.15,0.32 0.142,0.324 0.124,0.302 z m -132.604,-30.735 0.017,-0.047 0.107,-0.27 0.115,-0.271 0.119,-0.257 0.123,-0.25 0.136,-0.26 0.145,-0.259 0.144,-0.24 0.149,-0.236 0.159,-0.238 0.161,-0.228 0.17,-0.228 0.174,-0.22 0.17,-0.204 0.181,-0.208 0.188,-0.205 0.183,-0.19 0.186,-0.183 0.191,-0.18 0.197,-0.177 0.19,-0.163 0.195,-0.16 0.197,-0.154 0.197,-0.147 0.204,-0.146 0.198,-0.134 0.196,-0.128 0.197,-0.123 0.195,-0.116 0.198,-0.113 0.199,-0.108 0.195,-0.101 0.196,-0.097 0.198,-0.094 0.193,-0.087 0.189,-0.081 0.189,-0.078 0.194,-0.075 0.224,-0.083 0.332,-0.115 0.367,-0.114 0.365,-0.101 0.353,-0.087 0.351,-0.077 0.347,-0.065 0.337,-0.056 0.338,-0.047 0.328,-0.038 0.324,-0.03 0.325,-0.023 0.316,-0.015 0.313,-0.01 0.267,-0.002 h 33.216 v -36.929 h -44.638 z m 384.093,-0.536 0.034,-0.029 0.269,-0.217 0.274,-0.21 0.28,-0.205 0.095,-0.066 -0.095,-0.066 -0.28,-0.205 -0.274,-0.21 -0.271,-0.218 -0.032,-0.028 z m -539.343,-0.004 0.03,-0.025 0.272,-0.219 0.274,-0.21 0.279,-0.204 0.095,-0.066 -0.095,-0.066 -0.279,-0.204 -0.274,-0.21 -0.272,-0.219 -0.03,-0.025 z m -107.513,-28.298 0.093,-0.197 0.107,-0.214 0.112,-0.212 0.117,-0.209 0.12,-0.208 0.125,-0.204 0.128,-0.2 0.135,-0.202 0.137,-0.195 0.141,-0.194 0.146,-0.191 0.144,-0.181 0.152,-0.183 0.159,-0.183 0.155,-0.173 0.158,-0.167 0.164,-0.168 0.169,-0.166 0.165,-0.156 0.17,-0.155 0.176,-0.153 0.173,-0.146 0.175,-0.141 0.177,-0.137 0.182,-0.136 0.18,-0.128 0.18,-0.124 0.187,-0.125 0.182,-0.115 0.183,-0.112 0.186,-0.11 0.186,-0.105 0.184,-0.099 0.186,-0.097 0.196,-0.097 0.183,-0.087 0.183,-0.084 0.189,-0.082 0.187,-0.078 0.19,-0.076 0.185,-0.071 0.183,-0.066 0.19,-0.066 0.187,-0.061 0.185,-0.058 0.185,-0.054 0.177,-0.05 0.187,-0.049 0.186,-0.047 0.181,-0.042 0.183,-0.04 0.18,-0.037 0.181,-0.034 0.208,-0.037 0.325,-0.051 0.356,-0.047 0.352,-0.037 0.348,-0.028 0.345,-0.019 0.342,-0.012 0.287,-0.003 h 40.635 v -52.05 h -52.05 z m 485.128,-0.758 0.029,-0.042 0.206,-0.281 0.21,-0.275 0.215,-0.266 0.225,-0.266 0.231,-0.26 0.233,-0.25 0.242,-0.248 0.247,-0.242 0.252,-0.234 0.261,-0.232 0.264,-0.223 0.268,-0.216 0.275,-0.211 0.279,-0.204 0.286,-0.199 0.292,-0.193 0.295,-0.184 0.301,-0.178 0.304,-0.171 0.31,-0.164 0.315,-0.157 0.321,-0.151 0.323,-0.142 0.303,-0.124 0.193,-0.075 0.164,-0.062 0.169,-0.061 0.17,-0.059 0.17,-0.056 0.167,-0.054 0.171,-0.052 0.176,-0.052 0.172,-0.048 0.177,-0.046 0.174,-0.044 0.173,-0.042 0.18,-0.04 0.175,-0.038 0.178,-0.035 0.18,-0.034 0.181,-0.031 0.18,-0.029 0.181,-0.027 0.18,-0.024 0.185,-0.022 0.185,-0.02 0.179,-0.018 0.183,-0.015 0.184,-0.013 0.184,-0.01 0.182,-0.008 0.188,-0.007 0.191,-0.003 0.154,-10e-4 h 40.24 v -52.052 h -52.053 z m -277.549,-56.478 0.178,-0.284 0.192,-0.291 0.199,-0.286 0.204,-0.28 0.211,-0.274 0.217,-0.27 0.024,-0.028 h -2.449 l 0.024,0.028 0.217,0.27 0.211,0.274 0.204,0.28 0.199,0.286 0.192,0.291 z m 597.218,206.296 -2.955,-0.316 -2.713,-1.214 -2.206,-1.992 -43.454,-53.852 -0.019,-0.013 -0.02,-0.015 -0.023,-0.015 -0.026,-0.018 -0.029,-0.019 -0.03,-0.019 -0.032,-0.02 -0.035,-0.021 -0.034,-0.02 -0.036,-0.02 -0.037,-0.021 -0.037,-0.02 -0.041,-0.022 -0.042,-0.022 -0.041,-0.02 -0.039,-0.019 -0.04,-0.019 -0.042,-0.019 -0.042,-0.019 -0.041,-0.017 -0.041,-0.017 -0.04,-0.016 -0.038,-0.015 -0.038,-0.015 -0.036,-0.013 -0.036,-0.012 -0.035,-0.012 -0.031,-0.01 -0.03,-0.009 -0.028,-0.008 -0.025,-0.008 -0.021,-0.005 h -45.025 l -0.155,-10e-4 -0.186,-0.004 -0.187,-0.006 -0.179,-0.008 -0.188,-0.01 -0.188,-0.014 -0.175,-0.014 -0.183,-0.018 -0.19,-0.02 -0.18,-0.022 -0.18,-0.025 -0.181,-0.026 -0.18,-0.029 -0.181,-0.032 -0.176,-0.032 -0.182,-0.037 -0.18,-0.038 -0.171,-0.038 -0.177,-0.043 -0.181,-0.045 -0.17,-0.046 -0.17,-0.047 -0.174,-0.051 -0.175,-0.053 -0.171,-0.055 -0.166,-0.055 -0.17,-0.059 -0.169,-0.061 -0.164,-0.062 -0.191,-0.074 -0.305,-0.125 -0.325,-0.143 -0.319,-0.15 -0.313,-0.156 -0.312,-0.165 -0.306,-0.172 -0.299,-0.177 -0.293,-0.184 -0.292,-0.192 -0.289,-0.201 -0.279,-0.204 -0.273,-0.209 -0.269,-0.217 -0.265,-0.225 -0.26,-0.23 -0.25,-0.233 -0.249,-0.243 -0.243,-0.249 -0.232,-0.25 -0.23,-0.258 -0.226,-0.267 -0.215,-0.267 -0.21,-0.273 -0.206,-0.281 -0.201,-0.29 -0.19,-0.289 -0.185,-0.294 -0.178,-0.301 -0.171,-0.305 -0.165,-0.312 -0.155,-0.312 -0.149,-0.317 -0.144,-0.328 -0.125,-0.303 -0.074,-0.191 -0.062,-0.166 -0.063,-0.173 -0.058,-0.167 -0.055,-0.165 -0.055,-0.175 -0.052,-0.168 -0.051,-0.176 -0.049,-0.175 -0.044,-0.167 -0.045,-0.175 -0.042,-0.176 -0.04,-0.177 -0.039,-0.185 -0.035,-0.177 -0.033,-0.176 -0.032,-0.185 -0.028,-0.176 -0.026,-0.176 -0.025,-0.185 -0.023,-0.184 -0.019,-0.176 -0.018,-0.184 -0.016,-0.193 -0.012,-0.184 -0.011,-0.181 h -36.825 l -0.155,-0.001 -0.186,-0.004 -0.183,-0.006 -0.183,-0.008 -0.188,-0.01 -0.184,-0.013 -0.183,-0.016 -0.184,-0.017 -0.185,-0.02 -0.181,-0.023 -0.179,-0.024 -0.18,-0.026 -0.182,-0.029 -0.18,-0.032 -0.178,-0.033 -0.18,-0.036 -0.18,-0.038 -0.171,-0.038 -0.175,-0.042 -0.179,-0.045 -0.174,-0.047 -0.176,-0.049 -0.167,-0.049 -0.169,-0.051 -0.178,-0.057 -0.17,-0.057 -0.166,-0.057 -0.169,-0.061 -0.164,-0.062 -0.193,-0.075 -0.303,-0.124 -0.324,-0.143 -0.32,-0.15 -0.313,-0.156 -0.31,-0.164 -0.308,-0.173 -0.301,-0.178 -0.294,-0.184 -0.289,-0.191 -0.287,-0.199 -0.28,-0.205 -0.274,-0.21 -0.271,-0.218 -0.032,-0.028 v 2.645 l -0.002,0.155 -0.003,0.173 -0.006,0.191 -0.009,0.193 -0.01,0.173 -0.012,0.184 -0.016,0.193 -0.018,0.184 -0.019,0.176 -0.023,0.184 -0.024,0.176 -0.027,0.185 -0.029,0.185 -0.031,0.176 -0.033,0.176 -0.035,0.177 -0.039,0.185 -0.04,0.177 -0.042,0.176 -0.042,0.167 -0.047,0.175 -0.049,0.175 -0.051,0.176 -0.054,0.177 -0.054,0.166 -0.054,0.165 -0.058,0.167 -0.063,0.173 -0.062,0.166 -0.074,0.191 -0.125,0.303 -0.142,0.324 -0.151,0.321 -0.157,0.315 -0.161,0.306 -0.173,0.308 -0.179,0.301 -0.184,0.294 -0.192,0.292 -0.199,0.287 -0.204,0.278 -0.211,0.276 -0.219,0.27 -0.223,0.264 -0.23,0.258 -0.232,0.25 -0.241,0.247 -0.25,0.245 -0.253,0.235 -0.258,0.228 -0.265,0.225 -0.267,0.215 -0.274,0.211 -0.282,0.206 -0.287,0.199 -0.292,0.192 -0.293,0.184 -0.299,0.177 -0.304,0.171 -0.314,0.166 -0.315,0.157 -0.317,0.149 -0.325,0.143 -0.305,0.125 -0.188,0.073 -0.167,0.063 -0.17,0.061 -0.169,0.059 -0.169,0.056 -0.168,0.054 -0.175,0.053 -0.172,0.05 -0.172,0.048 -0.172,0.046 -0.179,0.045 -0.177,0.043 -0.171,0.038 -0.18,0.038 -0.182,0.037 -0.176,0.032 -0.181,0.032 -0.18,0.029 -0.181,0.026 -0.18,0.025 -0.18,0.022 -0.189,0.02 -0.184,0.018 -0.176,0.014 -0.187,0.014 -0.188,0.01 -0.178,0.008 -0.188,0.006 -0.186,0.004 -0.155,10e-4 H 757.84 l -0.155,-10e-4 -0.186,-0.004 -0.188,-0.006 -0.178,-0.008 -0.188,-0.01 -0.187,-0.014 -0.176,-0.014 -0.184,-0.018 -0.189,-0.02 -0.18,-0.022 -0.18,-0.025 -0.181,-0.026 -0.18,-0.029 -0.181,-0.032 -0.176,-0.032 -0.182,-0.037 -0.18,-0.038 -0.171,-0.038 -0.177,-0.043 -0.179,-0.045 -0.172,-0.046 -0.172,-0.048 -0.172,-0.05 -0.175,-0.053 -0.168,-0.054 -0.169,-0.056 -0.169,-0.059 -0.17,-0.061 -0.167,-0.063 -0.188,-0.073 -0.305,-0.125 -0.325,-0.143 -0.317,-0.149 -0.315,-0.157 -0.314,-0.166 -0.304,-0.171 -0.299,-0.177 -0.293,-0.184 -0.292,-0.192 -0.287,-0.199 -0.282,-0.206 -0.274,-0.211 -0.267,-0.215 -0.265,-0.225 -0.258,-0.228 -0.253,-0.235 -0.25,-0.245 -0.241,-0.247 -0.232,-0.25 -0.23,-0.258 -0.223,-0.264 -0.219,-0.27 -0.211,-0.276 -0.204,-0.278 -0.199,-0.287 -0.192,-0.292 -0.184,-0.294 -0.179,-0.301 -0.173,-0.308 -0.001,-0.003 -0.003,0.006 -0.171,0.305 -0.178,0.301 -0.187,0.297 -0.19,0.289 -0.199,0.287 -0.204,0.278 -0.209,0.273 -0.218,0.27 -0.226,0.267 -0.23,0.258 -0.234,0.252 -0.241,0.247 -0.246,0.24 -0.255,0.238 -0.258,0.228 -0.262,0.223 -0.272,0.219 -0.273,0.209 -0.281,0.206 -0.287,0.199 -0.289,0.191 -0.296,0.185 -0.299,0.177 -0.306,0.172 -0.314,0.166 -0.311,0.155 -0.318,0.15 -0.326,0.143 -0.303,0.124 -0.193,0.075 -0.164,0.062 -0.169,0.061 -0.17,0.059 -0.166,0.055 -0.174,0.055 -0.175,0.054 -0.169,0.049 -0.17,0.048 -0.172,0.046 -0.183,0.046 -0.175,0.042 -0.171,0.038 -0.182,0.039 -0.18,0.036 -0.176,0.032 -0.181,0.032 -0.18,0.029 -0.181,0.026 -0.18,0.025 -0.179,0.021 -0.19,0.021 -0.184,0.018 -0.175,0.014 -0.188,0.014 -0.188,0.01 -0.179,0.008 -0.187,0.006 -0.186,0.004 -0.155,10e-4 h -82.239 l -0.155,-10e-4 -0.186,-0.004 -0.188,-0.006 -0.178,-0.008 -0.188,-0.01 -0.188,-0.014 -0.175,-0.014 -0.183,-0.018 -0.19,-0.02 -0.18,-0.022 -0.18,-0.025 -0.181,-0.026 -0.18,-0.029 -0.181,-0.032 -0.176,-0.032 -0.182,-0.037 -0.18,-0.038 -0.171,-0.038 -0.177,-0.043 -0.179,-0.045 -0.172,-0.046 -0.172,-0.048 -0.172,-0.05 -0.175,-0.053 -0.171,-0.055 -0.166,-0.055 -0.17,-0.059 -0.169,-0.061 -0.164,-0.062 -0.191,-0.074 -0.305,-0.125 -0.325,-0.143 -0.319,-0.15 -0.313,-0.156 -0.312,-0.165 -0.306,-0.172 -0.299,-0.177 -0.293,-0.184 -0.292,-0.192 -0.289,-0.201 -0.279,-0.204 -0.273,-0.209 -0.269,-0.217 -0.265,-0.225 -0.26,-0.23 -0.25,-0.233 -0.249,-0.243 -0.243,-0.249 -0.232,-0.25 -0.23,-0.258 -0.226,-0.267 -0.215,-0.267 -0.21,-0.273 -0.206,-0.281 -0.201,-0.29 -0.19,-0.289 -0.182,-0.291 -0.181,-0.304 -0.173,-0.308 -0.163,-0.309 -0.155,-0.312 -0.114,-0.242 -0.112,0.238 -0.159,0.319 -0.164,0.309 -0.17,0.305 -0.179,0.301 -0.184,0.294 -0.192,0.292 -0.199,0.287 -0.204,0.278 -0.211,0.276 -0.219,0.27 -0.221,0.261 -0.229,0.259 -0.237,0.254 -0.241,0.247 -0.249,0.243 -0.253,0.235 -0.257,0.228 -0.263,0.223 -0.269,0.217 -0.277,0.213 -0.279,0.204 -0.285,0.198 -0.291,0.192 -0.296,0.185 -0.301,0.178 -0.304,0.171 -0.312,0.165 -0.315,0.157 -0.317,0.149 -0.325,0.143 -0.305,0.125 -0.188,0.073 -0.164,0.062 -0.172,0.062 -0.173,0.06 -0.166,0.055 -0.168,0.054 -0.175,0.053 -0.172,0.05 -0.172,0.048 -0.172,0.046 -0.179,0.045 -0.175,0.042 -0.173,0.039 -0.182,0.039 -0.18,0.036 -0.176,0.032 -0.181,0.032 -0.18,0.029 -0.181,0.026 -0.18,0.025 -0.18,0.022 -0.189,0.02 -0.184,0.018 -0.176,0.014 -0.187,0.014 -0.188,0.01 -0.179,0.008 -0.187,0.006 -0.186,0.004 -0.155,10e-4 h -61.839 l -0.155,-10e-4 -0.186,-0.004 -0.187,-0.006 -0.179,-0.008 -0.188,-0.01 -0.188,-0.014 -0.175,-0.014 -0.184,-0.018 -0.189,-0.02 -0.18,-0.022 -0.18,-0.025 -0.18,-0.026 -0.181,-0.029 -0.182,-0.032 -0.176,-0.032 -0.18,-0.036 -0.181,-0.039 -0.171,-0.038 -0.176,-0.042 -0.181,-0.046 -0.172,-0.046 -0.171,-0.048 -0.17,-0.049 -0.176,-0.054 -0.17,-0.055 -0.168,-0.055 -0.17,-0.059 -0.169,-0.061 -0.166,-0.063 -0.19,-0.073 -0.304,-0.125 -0.325,-0.143 -0.318,-0.149 -0.313,-0.156 -0.314,-0.166 -0.305,-0.172 -0.299,-0.177 -0.294,-0.184 -0.291,-0.192 -0.287,-0.199 -0.282,-0.206 -0.273,-0.21 -0.268,-0.216 -0.265,-0.225 -0.259,-0.229 -0.253,-0.236 -0.248,-0.242 -0.241,-0.247 -0.233,-0.251 -0.23,-0.258 -0.224,-0.265 -0.219,-0.271 -0.21,-0.274 -0.204,-0.278 -0.199,-0.287 -0.191,-0.29 -0.186,-0.296 -0.178,-0.301 -0.172,-0.307 -0.163,-0.309 -0.157,-0.315 -0.15,-0.319 -0.142,-0.324 -0.123,-0.299 -0.012,-0.032 -0.012,0.03 -0.124,0.301 -0.142,0.324 -0.15,0.319 -0.157,0.315 -0.164,0.311 -0.171,0.305 -0.179,0.301 -0.185,0.296 -0.191,0.29 -0.198,0.285 -0.205,0.28 -0.211,0.276 -0.218,0.269 -0.223,0.264 -0.229,0.258 -0.236,0.253 -0.241,0.247 -0.247,0.241 -0.253,0.236 -0.259,0.229 -0.264,0.224 -0.269,0.217 -0.275,0.211 -0.28,0.205 -0.286,0.198 -0.29,0.192 -0.296,0.185 -0.3,0.178 -0.305,0.171 -0.312,0.165 -0.314,0.157 -0.318,0.149 -0.325,0.143 -0.303,0.124 -0.191,0.074 -0.166,0.063 -0.169,0.061 -0.172,0.059 -0.166,0.055 -0.169,0.055 -0.175,0.053 -0.173,0.051 -0.171,0.047 -0.171,0.046 -0.18,0.045 -0.176,0.042 -0.173,0.039 -0.18,0.039 -0.18,0.036 -0.177,0.032 -0.181,0.032 -0.18,0.029 -0.181,0.026 -0.18,0.025 -0.18,0.022 -0.189,0.02 -0.184,0.018 -0.175,0.014 -0.188,0.014 -0.188,0.01 -0.179,0.008 -0.187,0.006 -0.186,0.004 -0.155,10e-4 h -61.847 l -0.263,-0.003 -0.3,-0.008 -0.299,-0.013 -0.294,-0.019 -0.288,-0.023 -0.284,-0.027 -0.283,-0.031 -0.282,-0.036 -0.274,-0.039 -0.271,-0.042 -0.273,-0.047 -0.267,-0.049 -0.263,-0.052 -0.263,-0.056 -0.26,-0.059 -0.26,-0.062 -0.256,-0.064 -0.252,-0.067 -0.252,-0.07 -0.25,-0.072 -0.249,-0.075 -0.248,-0.078 -0.246,-0.08 -0.243,-0.083 -0.242,-0.085 -0.241,-0.087 -0.241,-0.091 -0.238,-0.092 -0.237,-0.095 -0.236,-0.098 -0.237,-0.1 -0.232,-0.101 -0.231,-0.104 -0.235,-0.109 -0.23,-0.109 -0.229,-0.112 -0.229,-0.115 -0.228,-0.118 -0.226,-0.119 -0.226,-0.123 -0.225,-0.125 -0.224,-0.128 -0.224,-0.132 -0.223,-0.133 -0.222,-0.137 -0.22,-0.14 -0.221,-0.144 -0.22,-0.146 -0.217,-0.149 -0.218,-0.153 -0.218,-0.158 -0.217,-0.162 -0.216,-0.164 -0.214,-0.169 -0.216,-0.174 -0.215,-0.179 -0.211,-0.182 -0.214,-0.188 -0.212,-0.193 -0.211,-0.199 -0.212,-0.207 -0.208,-0.21 -0.209,-0.218 -0.178,-0.193 -39.225,-43.301 -0.176,-0.198 -0.206,-0.241 -0.201,-0.245 -0.198,-0.253 -0.196,-0.261 -0.194,-0.271 -0.192,-0.28 -0.185,-0.288 -0.184,-0.301 -0.179,-0.311 -0.174,-0.323 -0.168,-0.335 -0.162,-0.347 -0.14,-0.328 -0.089,-0.223 -0.073,-0.192 -0.038,-0.105 v 40.13 l -0.002,0.155 -0.003,0.187 -0.006,0.182 -0.008,0.183 -0.011,0.188 -0.013,0.184 -0.015,0.184 -0.018,0.184 -0.02,0.185 -0.022,0.179 -0.024,0.181 -0.027,0.18 -0.029,0.181 -0.031,0.18 -0.033,0.176 -0.036,0.181 -0.037,0.177 -0.04,0.176 -0.043,0.181 -0.044,0.171 -0.046,0.175 -0.049,0.175 -0.049,0.168 -0.053,0.172 -0.055,0.175 -0.057,0.169 -0.058,0.167 -0.061,0.169 -0.062,0.166 -0.074,0.191 -0.125,0.303 -0.142,0.324 -0.15,0.319 -0.157,0.315 -0.163,0.309 -0.173,0.309 -0.178,0.299 -0.184,0.294 -0.192,0.292 -0.199,0.287 -0.204,0.278 -0.21,0.274 -0.22,0.272 -0.223,0.264 -0.228,0.257 -0.235,0.252 -0.242,0.248 -0.247,0.241 -0.253,0.236 -0.259,0.229 -0.264,0.224 -0.27,0.218 -0.273,0.209 -0.28,0.205 -0.288,0.2 -0.291,0.192 -0.294,0.184 -0.299,0.177 -0.305,0.172 -0.314,0.166 -0.314,0.156 -0.317,0.149 -0.324,0.142 -0.305,0.126 -0.19,0.073 -0.166,0.063 -0.171,0.061 -0.168,0.059 -0.166,0.055 -0.172,0.055 -0.176,0.054 -0.17,0.049 -0.172,0.048 -0.171,0.046 -0.18,0.045 -0.177,0.043 -0.171,0.038 -0.181,0.039 -0.181,0.036 -0.176,0.032 -0.181,0.032 -0.18,0.029 -0.181,0.026 -0.18,0.025 -0.18,0.022 -0.189,0.02 -0.184,0.018 -0.175,0.014 -0.188,0.014 -0.188,0.01 -0.179,0.008 -0.187,0.006 -0.186,0.004 -0.155,10e-4 h -28.366 l -0.155,-10e-4 -0.186,-0.004 -0.187,-0.006 -0.179,-0.008 -0.188,-0.01 -0.188,-0.014 -0.175,-0.014 -0.184,-0.018 -0.189,-0.02 -0.18,-0.022 -0.18,-0.025 -0.181,-0.026 -0.18,-0.029 -0.181,-0.032 -0.176,-0.032 -0.181,-0.036 -0.181,-0.039 -0.172,-0.039 -0.176,-0.042 -0.18,-0.045 -0.171,-0.046 -0.171,-0.047 -0.171,-0.05 -0.177,-0.054 -0.171,-0.055 -0.164,-0.055 -0.172,-0.059 -0.169,-0.061 -0.166,-0.063 -0.19,-0.074 -0.304,-0.124 -0.325,-0.143 -0.318,-0.149 -0.313,-0.156 -0.313,-0.166 -0.306,-0.172 -0.299,-0.177 -0.294,-0.184 -0.291,-0.192 -0.288,-0.2 -0.28,-0.205 -0.273,-0.209 -0.27,-0.218 -0.266,-0.225 -0.257,-0.228 -0.251,-0.234 -0.249,-0.243 -0.242,-0.248 -0.235,-0.252 -0.228,-0.257 -0.225,-0.265 -0.218,-0.271 -0.209,-0.272 -0.205,-0.28 -0.2,-0.289 -0.191,-0.29 -0.178,-0.283 -0.177,0.283 -0.191,0.29 -0.2,0.289 -0.205,0.28 -0.209,0.272 -0.218,0.271 -0.225,0.265 -0.228,0.257 -0.235,0.252 -0.242,0.248 -0.249,0.243 -0.251,0.234 -0.257,0.228 -0.266,0.225 -0.27,0.218 -0.273,0.209 -0.28,0.205 -0.288,0.2 -0.291,0.192 -0.294,0.184 -0.299,0.177 -0.306,0.172 -0.313,0.166 -0.313,0.156 -0.318,0.149 -0.325,0.143 -0.304,0.124 -0.19,0.074 -0.166,0.063 -0.169,0.061 -0.172,0.059 -0.164,0.055 -0.171,0.055 -0.177,0.054 -0.171,0.05 -0.171,0.047 -0.171,0.046 -0.18,0.045 -0.176,0.042 -0.172,0.039 -0.181,0.039 -0.181,0.036 -0.176,0.032 -0.181,0.032 -0.18,0.029 -0.181,0.026 -0.18,0.025 -0.18,0.022 -0.189,0.02 -0.184,0.018 -0.175,0.014 -0.188,0.014 -0.188,0.01 -0.179,0.008 -0.187,0.006 -0.186,0.004 -0.155,10e-4 -27.222,-0.002 -0.155,-10e-4 -0.186,-0.004 -0.183,-0.006 -0.183,-0.008 -0.188,-0.01 -0.183,-0.013 -0.185,-0.016 -0.183,-0.017 -0.185,-0.02 -0.18,-0.022 -0.18,-0.025 -0.181,-0.026 -0.18,-0.029 -0.181,-0.032 -0.177,-0.032 -0.18,-0.036 -0.175,-0.038 -0.178,-0.04 -0.18,-0.043 -0.172,-0.043 -0.175,-0.047 -0.175,-0.049 -0.169,-0.049 -0.171,-0.052 -0.173,-0.056 -0.171,-0.056 -0.167,-0.058 -0.169,-0.061 -0.166,-0.063 -0.191,-0.074 -0.303,-0.124 -0.323,-0.142 -0.32,-0.15 -0.316,-0.158 -0.308,-0.163 -0.307,-0.172 -0.3,-0.178 -0.296,-0.185 -0.292,-0.193 -0.284,-0.197 -0.279,-0.204 -0.276,-0.212 -0.271,-0.218 -0.262,-0.223 -0.259,-0.229 -0.253,-0.236 -0.247,-0.241 -0.24,-0.246 -0.237,-0.254 -0.23,-0.26 -0.222,-0.262 -0.218,-0.269 -0.211,-0.276 -0.205,-0.28 -0.198,-0.285 -0.191,-0.29 -0.185,-0.296 -0.179,-0.301 -0.17,-0.304 -0.165,-0.311 -0.158,-0.317 -0.149,-0.318 -0.142,-0.323 -0.124,-0.303 -0.075,-0.192 -0.062,-0.166 -0.062,-0.17 -0.058,-0.169 -0.057,-0.17 -0.053,-0.168 -0.053,-0.171 -0.051,-0.175 -0.048,-0.172 -0.047,-0.176 -0.044,-0.175 -0.041,-0.171 -0.041,-0.181 -0.037,-0.177 -0.035,-0.176 -0.034,-0.181 -0.031,-0.18 -0.029,-0.181 -0.027,-0.18 -0.024,-0.181 -0.023,-0.184 -0.02,-0.184 -0.017,-0.18 -0.015,-0.184 -0.013,-0.184 -0.011,-0.182 h -36.815 l -0.154,-10e-4 -0.191,-0.004 -0.187,-0.006 -0.183,-0.008 -0.184,-0.01 -0.183,-0.013 -0.184,-0.016 -0.18,-0.017 -0.185,-0.02 -0.184,-0.022 -0.18,-0.025 -0.181,-0.026 -0.18,-0.029 -0.181,-0.032 -0.18,-0.033 -0.177,-0.035 -0.176,-0.038 -0.181,-0.041 -0.172,-0.041 -0.174,-0.044 -0.177,-0.047 -0.172,-0.048 -0.175,-0.051 -0.171,-0.052 -0.168,-0.054 -0.17,-0.056 -0.168,-0.059 -0.171,-0.061 -0.166,-0.063 -0.192,-0.074 -0.303,-0.125 -0.322,-0.141 -0.319,-0.15 -0.316,-0.157 -0.312,-0.166 -0.303,-0.17 -0.301,-0.178 -0.296,-0.185 -0.291,-0.192 -0.285,-0.198 -0.28,-0.205 -0.275,-0.211 -0.269,-0.217 -0.032,-0.027 v 2.635 l -0.001,0.155 -0.003,0.182 -0.006,0.187 -0.008,0.188 -0.011,0.183 -0.013,0.184 -0.015,0.184 -0.018,0.184 -0.019,0.18 -0.022,0.18 -0.025,0.185 -0.027,0.185 -0.029,0.176 -0.03,0.176 -0.034,0.185 -0.036,0.176 -0.037,0.177 -0.041,0.181 -0.041,0.171 -0.044,0.175 -0.047,0.176 -0.048,0.172 -0.051,0.175 -0.052,0.171 -0.055,0.172 -0.056,0.166 -0.058,0.169 -0.062,0.17 -0.062,0.166 -0.076,0.194 -0.122,0.299 -0.143,0.325 -0.15,0.32 -0.157,0.315 -0.164,0.309 -0.171,0.306 -0.179,0.301 -0.185,0.296 -0.191,0.29 -0.198,0.285 -0.205,0.28 -0.211,0.276 -0.218,0.269 -0.223,0.264 -0.23,0.258 -0.235,0.253 -0.241,0.247 -0.247,0.241 -0.253,0.236 -0.259,0.229 -0.263,0.224 -0.27,0.217 -0.275,0.211 -0.28,0.205 -0.285,0.198 -0.292,0.192 -0.295,0.185 -0.3,0.178 -0.306,0.171 -0.31,0.165 -0.315,0.157 -0.319,0.149 -0.324,0.143 -0.304,0.125 -0.19,0.073 -0.165,0.062 -0.17,0.062 -0.167,0.058 -0.171,0.056 -0.175,0.056 -0.169,0.052 -0.168,0.049 -0.176,0.049 -0.175,0.047 -0.173,0.043 -0.18,0.044 -0.176,0.039 -0.175,0.037 -0.181,0.037 -0.177,0.032 -0.181,0.032 -0.181,0.029 -0.18,0.026 -0.18,0.025 -0.18,0.022 -0.185,0.02 -0.184,0.017 -0.184,0.016 -0.183,0.013 -0.188,0.01 -0.183,0.008 -0.183,0.006 -0.186,0.004 -0.155,10e-4 h -34.557 l -0.283,-0.003 -0.333,-0.011 -0.326,-0.017 -0.32,-0.024 -0.316,-0.029 -0.314,-0.036 -0.31,-0.041 -0.305,-0.046 -0.302,-0.051 -0.298,-0.056 -0.294,-0.06 -0.291,-0.065 -0.286,-0.069 -0.283,-0.073 -0.282,-0.077 -0.278,-0.082 -0.275,-0.084 -0.272,-0.089 -0.267,-0.091 -0.268,-0.096 -0.267,-0.1 -0.26,-0.101 -0.259,-0.106 -0.258,-0.109 -0.253,-0.112 -0.252,-0.115 -0.253,-0.12 -0.249,-0.122 -0.244,-0.124 -0.244,-0.128 -0.245,-0.132 -0.24,-0.135 -0.237,-0.137 -0.238,-0.141 -0.236,-0.145 -0.233,-0.148 -0.232,-0.151 -0.23,-0.155 -0.228,-0.157 -0.227,-0.162 -0.225,-0.165 -0.222,-0.168 -0.222,-0.173 -0.222,-0.177 -0.219,-0.181 -0.215,-0.183 -0.215,-0.188 -0.215,-0.195 -0.211,-0.197 -0.208,-0.2 -0.21,-0.208 -0.206,-0.212 -0.203,-0.215 -0.203,-0.222 -0.201,-0.228 -0.198,-0.233 -0.195,-0.238 -0.193,-0.245 -0.191,-0.251 -0.189,-0.258 -0.183,-0.263 -0.182,-0.271 -0.179,-0.28 -0.147,-0.241 -42.012,-70.563 -0.144,-0.249 -0.165,-0.299 -0.159,-0.307 -0.154,-0.312 -0.148,-0.321 -0.064,-0.15 v 66.624 l -0.002,0.155 -0.003,0.187 -0.006,0.182 -0.008,0.183 -0.011,0.188 -0.013,0.184 -0.015,0.184 -0.018,0.184 -0.02,0.185 -0.022,0.179 -0.024,0.181 -0.027,0.18 -0.029,0.181 -0.031,0.18 -0.033,0.176 -0.036,0.181 -0.037,0.177 -0.04,0.176 -0.043,0.181 -0.043,0.17 -0.047,0.177 -0.049,0.176 -0.049,0.166 -0.052,0.171 -0.056,0.176 -0.057,0.17 -0.057,0.165 -0.062,0.17 -0.062,0.166 -0.074,0.19 -0.125,0.305 -0.142,0.323 -0.149,0.318 -0.158,0.317 -0.164,0.309 -0.172,0.308 -0.178,0.299 -0.184,0.294 -0.192,0.292 -0.199,0.287 -0.204,0.278 -0.21,0.274 -0.22,0.272 -0.222,0.263 -0.229,0.258 -0.236,0.253 -0.241,0.247 -0.247,0.241 -0.253,0.236 -0.259,0.229 -0.262,0.223 -0.272,0.219 -0.274,0.21 -0.279,0.204 -0.286,0.199 -0.293,0.193 -0.294,0.184 -0.299,0.177 -0.307,0.172 -0.31,0.165 -0.316,0.157 -0.319,0.149 -0.322,0.142 -0.305,0.126 -0.19,0.073 -0.166,0.063 -0.171,0.061 -0.164,0.057 -0.17,0.057 -0.177,0.056 -0.171,0.053 -0.166,0.048 -0.176,0.049 -0.175,0.047 -0.172,0.043 -0.181,0.044 -0.176,0.039 -0.176,0.038 -0.181,0.036 -0.176,0.032 -0.181,0.032 -0.18,0.029 -0.181,0.026 -0.18,0.025 -0.18,0.022 -0.184,0.02 -0.185,0.017 -0.184,0.016 -0.183,0.013 -0.188,0.01 -0.183,0.008 -0.183,0.006 -0.186,0.004 -0.155,10e-4 H 93.668 l -0.266,-0.003 -0.308,-0.009 -0.303,-0.014 -0.301,-0.019 -0.297,-0.025 -0.293,-0.029 -0.287,-0.034 -0.284,-0.037 -0.282,-0.042 -0.28,-0.046 -0.276,-0.049 -0.271,-0.052 -0.27,-0.056 -0.266,-0.06 -0.265,-0.062 -0.264,-0.066 -0.259,-0.069 -0.259,-0.072 -0.255,-0.074 -0.254,-0.077 -0.253,-0.08 -0.251,-0.084 -0.248,-0.085 -0.247,-0.088 -0.246,-0.091 -0.243,-0.094 -0.242,-0.096 -0.24,-0.098 -0.241,-0.102 -0.239,-0.104 -0.234,-0.105 -0.237,-0.11 -0.236,-0.113 -0.231,-0.113 -0.231,-0.116 -0.233,-0.121 -0.231,-0.123 -0.227,-0.125 -0.228,-0.128 -0.226,-0.13 -0.225,-0.134 -0.225,-0.137 -0.225,-0.14 -0.222,-0.143 -0.222,-0.146 -0.22,-0.149 -0.219,-0.152 -0.22,-0.157 -0.219,-0.161 -0.217,-0.164 -0.216,-0.167 -0.214,-0.171 -0.215,-0.176 -0.215,-0.181 -0.212,-0.185 -0.214,-0.192 -0.211,-0.196 -0.207,-0.198 -0.209,-0.206 -0.21,-0.214 -0.206,-0.219 -0.204,-0.223 -0.204,-0.232 -0.172,-0.204 -44.324,-53.435 -1.517,-2.556 -0.652,-2.9 0.276,-2.96 1.177,-2.729 1.962,-2.232 2.557,-1.516 2.9,-0.653 2.959,0.276 2.729,1.177 2.232,1.963 44.173,53.252 0.015,0.011 0.02,0.015 0.024,0.016 0.027,0.019 0.028,0.018 0.03,0.02 0.032,0.019 0.034,0.021 0.036,0.021 0.038,0.022 0.038,0.022 0.041,0.022 0.039,0.021 0.04,0.021 0.044,0.022 0.045,0.022 0.041,0.02 0.043,0.019 0.046,0.021 0.043,0.019 0.041,0.017 0.044,0.018 0.043,0.017 0.041,0.016 0.04,0.015 0.04,0.014 0.038,0.013 0.035,0.012 0.033,0.01 0.034,0.01 0.03,0.009 0.027,0.008 0.026,0.007 0.017,0.004 h 40.342 V 706.244 l 0.001,-0.154 0.003,-0.182 0.006,-0.187 0.008,-0.188 0.011,-0.184 0.013,-0.183 0.015,-0.184 0.018,-0.184 0.019,-0.18 0.022,-0.18 0.025,-0.185 0.027,-0.181 0.029,-0.18 0.031,-0.181 0.034,-0.181 0.035,-0.175 0.037,-0.176 0.041,-0.182 0.041,-0.171 0.044,-0.176 0.047,-0.176 0.048,-0.17 0.051,-0.178 0.053,-0.171 0.053,-0.165 0.056,-0.17 0.061,-0.175 0.06,-0.167 0.062,-0.164 0.076,-0.194 0.122,-0.298 0.142,-0.325 0.152,-0.323 0.156,-0.314 0.164,-0.309 0.171,-0.304 0.178,-0.301 0.186,-0.298 0.192,-0.29 0.197,-0.283 0.204,-0.28 0.213,-0.278 0.217,-0.268 0.223,-0.264 0.23,-0.258 0.235,-0.253 0.241,-0.247 0.246,-0.24 0.254,-0.237 0.26,-0.231 0.264,-0.223 0.267,-0.215 0.276,-0.212 0.282,-0.206 0.283,-0.197 0.29,-0.191 0.297,-0.186 0.302,-0.179 0.302,-0.17 0.312,-0.165 0.315,-0.157 0.319,-0.15 0.324,-0.142 0.302,-0.124 0.192,-0.075 0.165,-0.061 0.17,-0.062 0.172,-0.059 0.17,-0.057 0.166,-0.053 0.17,-0.052 0.176,-0.052 0.172,-0.048 0.175,-0.046 0.177,-0.045 0.171,-0.04 0.181,-0.041 0.176,-0.038 0.176,-0.035 0.181,-0.034 0.181,-0.031 0.18,-0.029 0.181,-0.027 0.18,-0.024 0.185,-0.022 0.184,-0.02 0.18,-0.018 0.184,-0.015 0.183,-0.013 0.184,-0.01 0.187,-0.009 0.183,-0.005 0.186,-0.004 0.159,-0.001 h 61.105 l 0.16,0.001 0.186,0.004 0.183,0.005 0.187,0.009 0.184,0.01 0.183,0.013 0.184,0.015 0.18,0.018 0.184,0.02 0.185,0.022 0.18,0.024 0.181,0.027 0.18,0.029 0.181,0.031 0.181,0.034 0.176,0.035 0.175,0.037 0.182,0.042 0.172,0.041 0.176,0.044 0.175,0.046 0.171,0.048 0.177,0.052 0.171,0.052 0.165,0.053 0.17,0.057 0.172,0.059 0.17,0.062 0.165,0.061 0.192,0.075 0.302,0.124 0.323,0.142 0.32,0.15 0.315,0.157 0.312,0.165 0.302,0.17 0.301,0.178 0.298,0.187 0.291,0.192 0.282,0.196 0.281,0.205 0.277,0.213 0.268,0.216 0.263,0.222 0.26,0.231 0.254,0.237 0.246,0.24 0.241,0.247 0.235,0.253 0.23,0.258 0.223,0.264 0.217,0.268 0.213,0.278 0.204,0.28 0.197,0.283 0.192,0.29 0.186,0.298 0.178,0.301 0.17,0.303 0.165,0.31 0.157,0.316 0.151,0.321 0.141,0.323 0.124,0.302 0.077,0.196 0.06,0.16 0.06,0.167 0.061,0.175 0.056,0.17 0.053,0.165 0.053,0.171 0.051,0.178 0.048,0.17 0.047,0.176 0.044,0.176 0.041,0.171 0.041,0.182 0.037,0.176 0.035,0.175 0.034,0.181 0.031,0.181 0.029,0.18 0.027,0.181 0.024,0.18 0.023,0.185 0.02,0.185 0.017,0.179 0.015,0.184 0.013,0.183 0.011,0.184 0.008,0.188 0.006,0.182 0.004,0.187 v 0.159 61.104 0.159 l -0.004,0.187 -0.006,0.182 -0.008,0.188 -0.011,0.183 -0.013,0.184 -0.015,0.184 -0.017,0.18 -0.02,0.184 -0.023,0.184 -0.024,0.181 -0.027,0.18 -0.029,0.181 -0.031,0.18 -0.034,0.181 -0.035,0.176 -0.037,0.177 -0.041,0.179 -0.041,0.173 -0.044,0.176 -0.047,0.175 -0.048,0.172 -0.051,0.175 -0.053,0.171 -0.053,0.167 -0.057,0.171 -0.06,0.174 -0.06,0.165 -0.06,0.162 -0.077,0.196 -0.124,0.303 -0.142,0.323 -0.149,0.318 -0.158,0.317 -0.165,0.311 -0.17,0.304 -0.179,0.301 -0.185,0.296 -0.191,0.29 -0.198,0.285 -0.205,0.28 -0.211,0.275 -0.218,0.27 -0.223,0.264 -0.23,0.258 -0.235,0.253 -0.241,0.247 -0.247,0.241 -0.253,0.236 -0.259,0.229 -0.262,0.223 -0.271,0.218 -0.276,0.212 -0.279,0.204 -0.284,0.197 -0.292,0.193 -0.297,0.185 -0.299,0.178 -0.306,0.171 -0.31,0.164 -0.315,0.158 -0.32,0.149 -0.323,0.143 -0.3,0.123 -0.194,0.075 -0.169,0.064 -0.166,0.06 -0.167,0.058 -0.171,0.056 -0.173,0.056 -0.171,0.052 -0.169,0.049 -0.175,0.049 -0.175,0.047 -0.172,0.043 -0.18,0.043 -0.178,0.04 -0.175,0.038 -0.18,0.036 -0.177,0.032 -0.181,0.032 -0.18,0.029 -0.181,0.026 -0.18,0.025 -0.18,0.022 -0.185,0.02 -0.184,0.017 -0.184,0.016 -0.183,0.013 -0.188,0.01 -0.183,0.008 -0.183,0.006 -0.186,0.004 -0.155,10e-4 h -33.403 l 35.736,60.022 0.019,0.011 0.019,0.011 0.017,0.01 0.021,0.011 h 29.522 v -92.108 l 0.002,-0.154 0.003,-0.187 0.006,-0.182 0.008,-0.184 0.011,-0.188 0.013,-0.183 0.015,-0.184 0.018,-0.184 0.019,-0.18 0.023,-0.185 0.025,-0.185 0.026,-0.176 0.029,-0.18 0.031,-0.181 0.033,-0.176 0.036,-0.18 0.037,-0.176 0.04,-0.177 0.043,-0.181 0.044,-0.171 0.046,-0.176 0.049,-0.175 0.049,-0.168 0.053,-0.171 0.055,-0.174 0.057,-0.17 0.058,-0.167 0.06,-0.167 0.063,-0.168 0.076,-0.194 0.123,-0.3 0.142,-0.323 0.15,-0.321 0.157,-0.316 0.164,-0.309 0.172,-0.306 0.177,-0.299 0.185,-0.296 0.193,-0.292 0.198,-0.285 0.203,-0.278 0.212,-0.276 0.219,-0.271 0.222,-0.263 0.229,-0.258 0.236,-0.253 0.241,-0.247 0.246,-0.24 0.254,-0.237 0.26,-0.231 0.263,-0.222 0.269,-0.217 0.275,-0.211 0.28,-0.205 0.285,-0.198 0.291,-0.192 0.296,-0.185 0.301,-0.178 0.303,-0.171 0.312,-0.165 0.316,-0.157 0.319,-0.15 0.322,-0.141 0.303,-0.125 0.192,-0.075 0.166,-0.062 0.169,-0.061 0.17,-0.059 0.172,-0.057 0.166,-0.053 0.171,-0.053 0.175,-0.051 0.172,-0.048 0.175,-0.046 0.176,-0.044 0.173,-0.042 0.18,-0.04 0.176,-0.038 0.177,-0.035 0.18,-0.034 0.181,-0.031 0.18,-0.029 0.181,-0.027 0.18,-0.024 0.184,-0.022 0.185,-0.02 0.18,-0.018 0.184,-0.015 0.183,-0.013 0.184,-0.01 0.183,-0.008 0.187,-0.007 0.191,-0.003 0.154,-10e-4 h 55.082 l 0.154,10e-4 0.191,0.003 0.187,0.007 0.184,0.008 0.183,0.01 0.183,0.013 0.184,0.015 0.18,0.018 0.185,0.02 0.184,0.022 0.18,0.024 0.181,0.027 0.18,0.029 0.181,0.031 0.18,0.034 0.177,0.035 0.176,0.038 0.181,0.041 0.172,0.041 0.176,0.044 0.175,0.046 0.171,0.048 0.176,0.051 0.172,0.053 0.167,0.054 0.168,0.056 0.172,0.059 0.169,0.061 0.166,0.062 0.192,0.075 0.302,0.124 0.323,0.142 0.32,0.15 0.315,0.157 0.311,0.165 0.304,0.171 0.301,0.178 0.296,0.185 0.291,0.192 0.285,0.198 0.28,0.205 0.275,0.211 0.269,0.217 0.264,0.223 0.259,0.23 0.253,0.235 0.247,0.242 0.241,0.247 0.236,0.253 0.229,0.258 0.224,0.264 0.217,0.27 0.211,0.274 0.204,0.28 0.199,0.286 0.192,0.291 0.185,0.296 0.177,0.299 0.171,0.305 0.166,0.312 0.156,0.314 0.15,0.319 0.142,0.325 0.125,0.304 0.074,0.19 0.062,0.164 0.061,0.171 0.06,0.171 0.055,0.166 0.054,0.169 0.054,0.176 0.05,0.173 0.048,0.17 0.045,0.171 0.046,0.181 0.042,0.176 0.039,0.173 0.038,0.18 0.036,0.18 0.033,0.176 0.031,0.181 0.029,0.18 0.027,0.181 0.024,0.18 0.022,0.181 0.021,0.189 0.017,0.184 0.015,0.179 0.013,0.183 0.011,0.184 0.008,0.183 0.006,0.187 0.004,0.187 10e-4,0.154 v 3.816 l -10e-4,0.155 -0.004,0.187 -0.006,0.187 -0.008,0.183 -0.011,0.183 -0.013,0.184 -0.015,0.179 -0.017,0.185 -0.021,0.189 -0.022,0.179 -0.024,0.181 -0.027,0.18 -0.029,0.181 -0.031,0.18 -0.033,0.176 -0.036,0.181 -0.038,0.181 -0.039,0.172 -0.042,0.176 -0.045,0.179 -0.046,0.172 -0.048,0.172 -0.05,0.171 -0.053,0.175 -0.056,0.172 -0.055,0.166 -0.058,0.169 -0.062,0.17 -0.062,0.166 -0.074,0.19 -0.125,0.305 -0.143,0.325 -0.148,0.316 -0.157,0.315 -0.166,0.313 -0.171,0.306 -0.178,0.299 -0.184,0.294 -0.191,0.29 -0.2,0.289 -0.205,0.28 -0.209,0.272 -0.218,0.271 -0.224,0.264 -0.229,0.258 -0.236,0.253 -0.241,0.247 -0.249,0.243 -0.251,0.234 -0.257,0.228 -0.264,0.224 -0.272,0.219 -0.274,0.21 -0.279,0.204 -0.286,0.199 -0.293,0.193 -0.294,0.184 -0.299,0.177 -0.308,0.173 -0.309,0.164 -0.315,0.157 -0.32,0.149 -0.323,0.143 -0.304,0.124 -0.19,0.074 -0.166,0.063 -0.169,0.061 -0.167,0.058 -0.169,0.056 -0.175,0.056 -0.173,0.053 -0.167,0.048 -0.175,0.049 -0.175,0.047 -0.176,0.044 -0.176,0.042 -0.172,0.039 -0.181,0.039 -0.181,0.036 -0.176,0.032 -0.181,0.032 -0.18,0.029 -0.181,0.026 -0.18,0.025 -0.18,0.022 -0.185,0.02 -0.184,0.017 -0.184,0.016 -0.183,0.013 -0.188,0.01 -0.183,0.008 -0.183,0.006 -0.186,0.004 -0.155,10e-4 h -36.801 v 12.854 h 36.797 l 0.159,10e-4 0.186,0.004 0.183,0.005 0.188,0.009 0.183,0.01 0.183,0.013 0.184,0.015 0.18,0.018 0.185,0.02 0.184,0.022 0.18,0.024 0.181,0.027 0.18,0.029 0.181,0.031 0.18,0.034 0.177,0.035 0.176,0.038 0.181,0.041 0.172,0.041 0.176,0.044 0.175,0.046 0.171,0.048 0.176,0.051 0.172,0.053 0.167,0.054 0.168,0.056 0.176,0.061 0.165,0.059 0.166,0.062 0.195,0.076 0.297,0.122 0.325,0.143 0.32,0.15 0.315,0.157 0.311,0.165 0.304,0.171 0.301,0.178 0.296,0.185 0.291,0.192 0.285,0.198 0.28,0.205 0.275,0.211 0.269,0.217 0.266,0.224 0.257,0.229 0.251,0.234 0.249,0.243 0.241,0.247 0.236,0.253 0.229,0.258 0.225,0.265 0.216,0.269 0.21,0.273 0.205,0.281 0.199,0.286 0.192,0.291 0.185,0.296 0.177,0.299 0.171,0.305 0.166,0.313 0.156,0.314 0.149,0.317 0.143,0.326 0.125,0.304 0.074,0.19 0.062,0.164 0.061,0.171 0.06,0.171 0.055,0.166 0.055,0.171 0.053,0.174 0.05,0.171 0.048,0.172 0.045,0.171 0.046,0.181 0.042,0.176 0.039,0.173 0.038,0.18 0.036,0.18 0.033,0.176 0.031,0.181 0.029,0.18 0.027,0.181 0.024,0.18 0.022,0.181 0.021,0.189 0.017,0.184 0.015,0.179 0.013,0.184 0.011,0.183 0.008,0.183 0.006,0.187 0.004,0.187 10e-4,0.154 v 3.817 l -10e-4,0.155 -0.004,0.187 -0.006,0.187 -0.008,0.183 -0.011,0.183 -0.013,0.184 -0.015,0.179 -0.017,0.184 -0.021,0.189 -0.022,0.18 -0.024,0.181 -0.027,0.18 -0.029,0.181 -0.031,0.18 -0.033,0.177 -0.036,0.18 -0.038,0.181 -0.039,0.172 -0.042,0.175 -0.046,0.181 -0.045,0.171 -0.048,0.172 -0.05,0.172 -0.053,0.174 -0.055,0.171 -0.055,0.166 -0.06,0.171 -0.061,0.171 -0.062,0.164 -0.074,0.19 -0.125,0.304 -0.143,0.326 -0.149,0.317 -0.156,0.314 -0.166,0.313 -0.171,0.305 -0.178,0.3 -0.184,0.295 -0.191,0.289 -0.2,0.287 -0.205,0.282 -0.21,0.273 -0.216,0.268 -0.225,0.266 -0.229,0.258 -0.236,0.253 -0.241,0.247 -0.249,0.243 -0.251,0.234 -0.257,0.228 -0.266,0.225 -0.269,0.217 -0.275,0.211 -0.28,0.205 -0.285,0.198 -0.291,0.192 -0.296,0.185 -0.301,0.178 -0.306,0.172 -0.309,0.163 -0.313,0.157 -0.322,0.151 -0.325,0.142 -0.297,0.122 -0.195,0.076 -0.166,0.063 -0.165,0.059 -0.176,0.061 -0.168,0.056 -0.167,0.053 -0.172,0.053 -0.176,0.052 -0.171,0.047 -0.175,0.047 -0.176,0.044 -0.172,0.041 -0.181,0.041 -0.176,0.038 -0.177,0.035 -0.18,0.033 -0.181,0.032 -0.18,0.029 -0.181,0.026 -0.185,0.025 -0.179,0.022 -0.181,0.02 -0.184,0.017 -0.184,0.016 -0.183,0.013 -0.183,0.01 -0.188,0.009 -0.187,0.005 -0.182,0.004 -0.155,0.001 h -36.801 v 14.459 h 36.801 l 0.155,10e-4 0.186,0.003 0.187,0.007 0.184,0.008 0.183,0.01 0.183,0.013 0.18,0.015 0.184,0.018 0.189,0.02 0.18,0.022 0.18,0.024 0.181,0.027 0.18,0.029 0.181,0.031 0.176,0.033 0.181,0.036 0.181,0.039 0.172,0.039 0.176,0.041 0.18,0.046 0.171,0.046 0.171,0.047 0.171,0.05 0.177,0.054 0.171,0.055 0.164,0.055 0.172,0.059 0.169,0.061 0.166,0.062 0.19,0.075 0.304,0.124 0.325,0.143 0.318,0.149 0.313,0.156 0.313,0.166 0.306,0.172 0.299,0.177 0.294,0.184 0.291,0.192 0.288,0.2 0.28,0.205 0.273,0.209 0.27,0.218 0.266,0.224 0.257,0.229 0.251,0.234 0.249,0.243 0.242,0.248 0.235,0.252 0.228,0.257 0.225,0.265 0.218,0.271 0.209,0.272 0.205,0.28 0.2,0.288 0.191,0.291 0.184,0.294 0.178,0.299 0.172,0.306 0.165,0.313 0.156,0.313 0.149,0.318 0.143,0.325 0.125,0.304 0.074,0.191 0.062,0.166 0.061,0.169 0.06,0.171 0.054,0.165 0.055,0.17 0.054,0.177 0.05,0.172 0.048,0.17 0.045,0.171 0.046,0.181 0.042,0.176 0.039,0.172 0.038,0.18 0.036,0.182 0.033,0.175 0.031,0.181 0.029,0.18 0.027,0.181 0.024,0.18 0.022,0.18 0.021,0.189 0.017,0.185 0.015,0.179 0.013,0.184 0.011,0.182 18.178,0.002 V 724.531 h -41.823 l -0.155,-10e-4 -0.186,-0.004 -0.187,-0.006 -0.183,-0.008 -0.184,-0.011 -0.183,-0.012 -0.18,-0.015 -0.184,-0.018 -0.189,-0.02 -0.18,-0.022 -0.18,-0.025 -0.18,-0.026 -0.181,-0.029 -0.181,-0.032 -0.177,-0.032 -0.181,-0.037 -0.18,-0.038 -0.171,-0.038 -0.176,-0.042 -0.181,-0.046 -0.171,-0.046 -0.172,-0.048 -0.172,-0.05 -0.174,-0.053 -0.17,-0.055 -0.166,-0.055 -0.172,-0.059 -0.17,-0.062 -0.165,-0.062 -0.19,-0.073 -0.304,-0.125 -0.325,-0.143 -0.318,-0.149 -0.313,-0.156 -0.314,-0.166 -0.304,-0.171 -0.3,-0.178 -0.295,-0.185 -0.29,-0.191 -0.287,-0.199 -0.282,-0.206 -0.273,-0.21 -0.268,-0.216 -0.265,-0.225 -0.259,-0.229 -0.253,-0.236 -0.247,-0.241 -0.242,-0.248 -0.234,-0.252 -0.229,-0.257 -0.224,-0.265 -0.218,-0.269 -0.211,-0.276 -0.205,-0.28 -0.198,-0.285 -0.191,-0.29 -0.185,-0.296 -0.179,-0.301 -0.172,-0.307 -0.163,-0.309 -0.156,-0.313 -0.151,-0.321 -0.143,-0.326 -0.122,-0.297 -0.076,-0.195 -0.062,-0.166 -0.061,-0.169 -0.06,-0.171 -0.055,-0.165 -0.054,-0.17 -0.053,-0.173 -0.051,-0.176 -0.048,-0.171 -0.047,-0.175 -0.044,-0.176 -0.041,-0.171 -0.041,-0.181 -0.037,-0.177 -0.036,-0.176 -0.034,-0.185 -0.03,-0.176 -0.029,-0.176 -0.027,-0.185 -0.025,-0.185 -0.022,-0.18 -0.019,-0.18 -0.018,-0.184 -0.015,-0.184 -0.013,-0.184 -0.011,-0.183 -0.008,-0.188 -0.006,-0.187 -0.003,-0.182 -0.001,-0.155 v -3.818 l 0.001,-0.154 0.003,-0.182 0.006,-0.187 0.008,-0.188 0.011,-0.184 0.013,-0.183 0.015,-0.184 0.018,-0.184 0.019,-0.18 0.022,-0.18 0.025,-0.185 0.027,-0.185 0.029,-0.176 0.03,-0.176 0.035,-0.186 0.035,-0.175 0.037,-0.176 0.041,-0.182 0.041,-0.171 0.044,-0.176 0.047,-0.176 0.048,-0.17 0.051,-0.178 0.053,-0.171 0.054,-0.169 0.055,-0.166 0.06,-0.171 0.061,-0.171 0.062,-0.164 0.076,-0.194 0.122,-0.298 0.142,-0.325 0.152,-0.323 0.156,-0.314 0.164,-0.309 0.171,-0.304 0.178,-0.301 0.186,-0.298 0.192,-0.29 0.197,-0.283 0.204,-0.28 0.213,-0.278 0.217,-0.268 0.223,-0.264 0.23,-0.258 0.235,-0.253 0.241,-0.247 0.246,-0.24 0.254,-0.237 0.26,-0.231 0.264,-0.223 0.267,-0.215 0.276,-0.212 0.282,-0.206 0.283,-0.197 0.29,-0.191 0.297,-0.186 0.302,-0.179 0.302,-0.17 0.312,-0.165 0.315,-0.157 0.319,-0.15 0.324,-0.142 0.302,-0.124 0.192,-0.075 0.165,-0.061 0.17,-0.062 0.172,-0.059 0.17,-0.057 0.166,-0.053 0.17,-0.052 0.176,-0.052 0.172,-0.048 0.175,-0.046 0.177,-0.045 0.172,-0.041 0.18,-0.04 0.175,-0.038 0.177,-0.035 0.181,-0.034 0.181,-0.031 0.181,-0.029 0.18,-0.027 0.18,-0.024 0.184,-0.022 0.185,-0.02 0.18,-0.018 0.184,-0.015 0.183,-0.013 0.184,-0.01 0.187,-0.009 0.183,-0.005 0.186,-0.004 0.159,-0.001 h 118.399 l 0.16,0.001 0.186,0.004 0.183,0.005 0.187,0.009 0.184,0.01 0.183,0.013 0.184,0.015 0.18,0.018 0.184,0.02 0.185,0.022 0.18,0.024 0.181,0.027 0.18,0.029 0.181,0.031 0.181,0.034 0.176,0.035 0.175,0.037 0.182,0.042 0.172,0.041 0.176,0.044 0.175,0.046 0.172,0.048 0.176,0.052 0.17,0.052 0.166,0.053 0.17,0.057 0.172,0.059 0.17,0.062 0.165,0.061 0.192,0.075 0.302,0.124 0.323,0.142 0.32,0.15 0.315,0.157 0.312,0.165 0.302,0.17 0.301,0.178 0.298,0.187 0.291,0.192 0.282,0.196 0.282,0.206 0.276,0.212 0.267,0.215 0.264,0.223 0.26,0.231 0.254,0.237 0.246,0.24 0.241,0.247 0.235,0.253 0.23,0.258 0.223,0.264 0.217,0.268 0.213,0.278 0.204,0.28 0.197,0.283 0.192,0.29 0.186,0.298 0.178,0.301 0.17,0.303 0.165,0.31 0.157,0.316 0.151,0.321 0.142,0.325 0.122,0.298 0.076,0.194 0.062,0.164 0.06,0.167 0.061,0.175 0.056,0.17 0.053,0.165 0.053,0.171 0.051,0.178 0.048,0.17 0.047,0.176 0.044,0.176 0.041,0.171 0.041,0.182 0.037,0.176 0.035,0.175 0.034,0.181 0.031,0.181 0.029,0.18 0.027,0.181 0.024,0.18 0.023,0.185 0.02,0.185 0.017,0.179 0.015,0.184 0.013,0.183 0.011,0.184 0.008,0.188 0.006,0.182 0.004,0.187 v 0.159 3.809 0.159 l -0.004,0.187 -0.006,0.182 -0.008,0.188 -0.011,0.183 -0.013,0.184 -0.015,0.184 -0.017,0.179 -0.02,0.185 -0.023,0.184 -0.024,0.181 -0.027,0.18 -0.029,0.181 -0.031,0.18 -0.034,0.181 -0.035,0.176 -0.037,0.177 -0.041,0.181 -0.041,0.171 -0.044,0.176 -0.047,0.175 -0.048,0.171 -0.051,0.176 -0.053,0.173 -0.053,0.166 -0.056,0.169 -0.061,0.175 -0.06,0.165 -0.062,0.166 -0.076,0.195 -0.122,0.297 -0.143,0.326 -0.15,0.319 -0.157,0.315 -0.164,0.311 -0.171,0.305 -0.179,0.301 -0.185,0.296 -0.191,0.29 -0.198,0.285 -0.205,0.28 -0.211,0.276 -0.218,0.269 -0.224,0.265 -0.229,0.257 -0.234,0.252 -0.242,0.248 -0.247,0.241 -0.253,0.236 -0.259,0.229 -0.265,0.225 -0.268,0.216 -0.273,0.21 -0.282,0.206 -0.286,0.198 -0.29,0.192 -0.297,0.186 -0.299,0.177 -0.304,0.171 -0.314,0.166 -0.313,0.156 -0.318,0.149 -0.325,0.143 -0.304,0.125 -0.19,0.073 -0.165,0.062 -0.17,0.062 -0.172,0.059 -0.166,0.055 -0.17,0.055 -0.174,0.053 -0.172,0.05 -0.172,0.048 -0.171,0.046 -0.18,0.045 -0.176,0.042 -0.173,0.039 -0.18,0.039 -0.18,0.036 -0.177,0.032 -0.181,0.032 -0.18,0.029 -0.181,0.026 -0.18,0.025 -0.18,0.022 -0.189,0.02 -0.184,0.018 -0.18,0.015 -0.183,0.012 -0.184,0.011 -0.183,0.008 -0.187,0.006 -0.186,0.004 -0.155,10e-4 h -42.826 v 117.362 h 19.304 v -92.11 l 10e-4,-0.154 0.003,-0.182 0.006,-0.187 0.008,-0.188 0.011,-0.184 0.013,-0.183 0.015,-0.184 0.018,-0.184 0.019,-0.18 0.022,-0.18 0.025,-0.185 0.027,-0.181 0.029,-0.18 0.031,-0.181 0.034,-0.181 0.035,-0.175 0.037,-0.176 0.041,-0.182 0.041,-0.171 0.044,-0.176 0.047,-0.176 0.048,-0.17 0.051,-0.178 0.053,-0.171 0.053,-0.165 0.056,-0.17 0.061,-0.175 0.06,-0.167 0.062,-0.164 0.076,-0.194 0.122,-0.298 0.142,-0.325 0.152,-0.323 0.156,-0.314 0.164,-0.309 0.171,-0.304 0.178,-0.301 0.186,-0.298 0.192,-0.29 0.197,-0.283 0.204,-0.28 0.213,-0.278 0.217,-0.268 0.223,-0.264 0.23,-0.258 0.235,-0.253 0.241,-0.247 0.246,-0.24 0.254,-0.237 0.26,-0.231 0.264,-0.223 0.267,-0.215 0.276,-0.212 0.282,-0.206 0.283,-0.197 0.29,-0.191 0.297,-0.186 0.302,-0.179 0.302,-0.17 0.312,-0.165 0.315,-0.157 0.319,-0.15 0.324,-0.142 0.302,-0.124 0.192,-0.075 0.165,-0.061 0.17,-0.062 0.172,-0.059 0.17,-0.057 0.166,-0.053 0.17,-0.052 0.176,-0.052 0.172,-0.048 0.175,-0.046 0.177,-0.045 0.171,-0.04 0.181,-0.041 0.176,-0.038 0.176,-0.035 0.181,-0.034 0.181,-0.031 0.18,-0.029 0.181,-0.027 0.18,-0.024 0.185,-0.022 0.184,-0.02 0.18,-0.018 0.184,-0.015 0.183,-0.013 0.184,-0.01 0.183,-0.008 0.187,-0.007 0.191,-0.003 0.154,-10e-4 h 53.693 l 0.154,10e-4 0.191,0.003 0.187,0.007 0.183,0.008 0.184,0.01 0.183,0.013 0.184,0.015 0.18,0.018 0.185,0.02 0.184,0.022 0.18,0.024 0.181,0.027 0.18,0.029 0.181,0.031 0.18,0.034 0.177,0.035 0.176,0.038 0.181,0.041 0.172,0.041 0.174,0.044 0.177,0.046 0.172,0.048 0.175,0.051 0.171,0.053 0.168,0.054 0.17,0.056 0.168,0.059 0.171,0.061 0.166,0.062 0.192,0.075 0.303,0.125 0.322,0.141 0.319,0.15 0.316,0.157 0.312,0.165 0.303,0.171 0.301,0.178 0.296,0.185 0.291,0.192 0.285,0.198 0.28,0.205 0.275,0.211 0.269,0.217 0.263,0.222 0.26,0.231 0.254,0.237 0.246,0.24 0.241,0.247 0.236,0.253 0.229,0.258 0.222,0.263 0.219,0.271 0.212,0.276 0.203,0.278 0.198,0.285 0.193,0.292 0.185,0.296 0.177,0.299 0.172,0.306 0.164,0.309 0.157,0.316 0.15,0.321 0.142,0.323 0.125,0.304 0.074,0.19 0.062,0.164 0.061,0.171 0.058,0.167 0.057,0.17 0.055,0.174 0.053,0.171 0.049,0.168 0.049,0.175 0.047,0.176 0.043,0.171 0.043,0.181 0.04,0.177 0.037,0.176 0.036,0.18 0.033,0.176 0.031,0.181 0.029,0.18 0.027,0.181 0.024,0.18 0.022,0.181 0.02,0.184 0.018,0.184 0.015,0.184 0.013,0.183 0.011,0.188 0.008,0.184 0.006,0.182 0.003,0.187 0.002,0.154 v 45.992 l -0.002,0.155 -0.003,0.187 -0.006,0.182 -0.008,0.183 -0.011,0.188 -0.013,0.184 -0.015,0.184 -0.018,0.184 -0.02,0.184 -0.022,0.18 -0.024,0.181 -0.027,0.18 -0.029,0.181 -0.031,0.18 -0.033,0.177 -0.036,0.18 -0.037,0.176 -0.04,0.177 -0.043,0.181 -0.043,0.171 -0.047,0.175 -0.049,0.177 -0.049,0.167 -0.052,0.17 -0.056,0.175 -0.057,0.17 -0.058,0.167 -0.061,0.171 -0.062,0.164 -0.074,0.19 -0.125,0.304 -0.142,0.324 -0.15,0.319 -0.157,0.316 -0.164,0.309 -0.172,0.307 -0.177,0.299 -0.185,0.296 -0.193,0.292 -0.198,0.284 -0.204,0.28 -0.211,0.275 -0.218,0.27 -0.223,0.264 -0.229,0.258 -0.236,0.253 -0.241,0.247 -0.247,0.242 -0.253,0.235 -0.259,0.229 -0.264,0.224 -0.269,0.217 -0.275,0.211 -0.28,0.205 -0.285,0.198 -0.291,0.192 -0.296,0.185 -0.301,0.178 -0.303,0.17 -0.312,0.166 -0.316,0.157 -0.319,0.15 -0.324,0.142 -0.299,0.123 -0.194,0.075 -0.166,0.063 -0.167,0.06 -0.172,0.06 -0.17,0.056 -0.168,0.054 -0.171,0.052 -0.175,0.051 -0.172,0.048 -0.177,0.047 -0.174,0.044 -0.172,0.041 -0.181,0.041 -0.176,0.038 -0.177,0.035 -0.18,0.033 -0.181,0.032 -0.18,0.029 -0.181,0.026 -0.18,0.025 -0.184,0.022 -0.185,0.02 -0.18,0.017 -0.184,0.016 -0.183,0.013 -0.184,0.01 -0.187,0.008 -0.183,0.006 -0.186,0.004 -0.159,10e-4 h -21.274 l 28.046,30.96 0.008,0.005 0.018,0.014 0.022,0.015 0.027,0.019 0.028,0.018 0.029,0.02 0.034,0.021 0.035,0.021 0.037,0.023 0.039,0.023 0.041,0.023 0.043,0.024 0.044,0.024 0.047,0.025 0.047,0.024 0.047,0.023 0.05,0.025 0.05,0.024 0.047,0.021 0.052,0.024 0.052,0.023 0.05,0.021 0.05,0.021 0.051,0.02 0.051,0.019 0.048,0.018 0.048,0.018 0.049,0.017 0.047,0.016 0.044,0.015 0.043,0.013 0.041,0.013 0.04,0.011 0.038,0.011 0.037,0.009 0.033,0.009 0.027,0.006 0.026,0.006 0.024,0.005 0.01,0.002 h 57.127 v -2.77 h -19.054 l -0.155,-0.001 -0.186,-0.004 -0.183,-0.006 -0.183,-0.008 -0.188,-0.01 -0.183,-0.013 -0.184,-0.016 -0.184,-0.017 -0.18,-0.02 -0.185,-0.022 -0.185,-0.025 -0.176,-0.026 -0.18,-0.029 -0.181,-0.032 -0.177,-0.032 -0.18,-0.036 -0.175,-0.038 -0.178,-0.04 -0.18,-0.043 -0.172,-0.043 -0.175,-0.047 -0.175,-0.049 -0.169,-0.049 -0.171,-0.052 -0.173,-0.056 -0.171,-0.056 -0.167,-0.058 -0.166,-0.06 -0.169,-0.064 -0.194,-0.075 -0.3,-0.123 -0.323,-0.143 -0.32,-0.149 -0.315,-0.158 -0.31,-0.164 -0.306,-0.171 -0.299,-0.178 -0.297,-0.185 -0.292,-0.193 -0.284,-0.197 -0.279,-0.204 -0.276,-0.212 -0.271,-0.218 -0.262,-0.223 -0.259,-0.229 -0.253,-0.236 -0.247,-0.241 -0.241,-0.247 -0.235,-0.253 -0.23,-0.258 -0.223,-0.264 -0.218,-0.27 -0.211,-0.275 -0.205,-0.28 -0.198,-0.285 -0.191,-0.29 -0.185,-0.296 -0.179,-0.301 -0.17,-0.304 -0.165,-0.311 -0.157,-0.316 -0.15,-0.319 -0.142,-0.324 -0.124,-0.302 -0.077,-0.196 -0.06,-0.162 -0.06,-0.165 -0.06,-0.174 -0.057,-0.171 -0.053,-0.167 -0.053,-0.171 -0.051,-0.175 -0.048,-0.172 -0.047,-0.175 -0.044,-0.176 -0.041,-0.173 -0.041,-0.179 -0.037,-0.177 -0.035,-0.176 -0.034,-0.181 -0.031,-0.18 -0.029,-0.181 -0.027,-0.18 -0.024,-0.181 -0.023,-0.184 -0.02,-0.184 -0.017,-0.18 -0.015,-0.184 -0.013,-0.184 -0.011,-0.183 -0.008,-0.188 -0.006,-0.182 -0.004,-0.187 v -0.159 -74.862 -0.159 l 0.004,-0.187 0.006,-0.182 0.008,-0.188 0.011,-0.184 0.013,-0.183 0.015,-0.184 0.017,-0.179 0.02,-0.185 0.023,-0.185 0.024,-0.18 0.027,-0.181 0.029,-0.18 0.031,-0.181 0.034,-0.181 0.035,-0.175 0.037,-0.176 0.041,-0.182 0.041,-0.171 0.044,-0.176 0.047,-0.176 0.048,-0.17 0.051,-0.178 0.053,-0.171 0.053,-0.165 0.056,-0.17 0.061,-0.175 0.06,-0.167 0.06,-0.16 0.077,-0.196 0.124,-0.302 0.141,-0.323 0.151,-0.321 0.157,-0.316 0.165,-0.31 0.17,-0.303 0.178,-0.301 0.186,-0.298 0.192,-0.29 0.197,-0.283 0.204,-0.28 0.213,-0.278 0.217,-0.268 0.223,-0.264 0.23,-0.258 0.235,-0.253 0.241,-0.247 0.246,-0.24 0.254,-0.237 0.26,-0.231 0.263,-0.222 0.268,-0.216 0.277,-0.213 0.281,-0.205 0.282,-0.196 0.291,-0.192 0.298,-0.187 0.301,-0.178 0.302,-0.17 0.312,-0.165 0.315,-0.157 0.32,-0.15 0.323,-0.142 0.302,-0.124 0.192,-0.075 0.165,-0.061 0.17,-0.062 0.172,-0.059 0.17,-0.057 0.165,-0.053 0.171,-0.052 0.177,-0.052 0.171,-0.048 0.175,-0.046 0.176,-0.044 0.172,-0.041 0.182,-0.042 0.175,-0.037 0.176,-0.035 0.181,-0.034 0.181,-0.031 0.18,-0.029 0.181,-0.027 0.18,-0.024 0.185,-0.022 0.184,-0.02 0.18,-0.018 0.184,-0.015 0.183,-0.013 0.184,-0.01 0.183,-0.008 0.187,-0.007 0.191,-0.003 0.155,-10e-4 74.871,0.002 0.155,10e-4 0.186,0.003 0.183,0.006 0.183,0.008 0.188,0.011 0.184,0.013 0.183,0.015 0.184,0.018 0.185,0.02 0.18,0.022 0.18,0.024 0.181,0.027 0.181,0.029 0.18,0.031 0.178,0.033 0.18,0.036 0.178,0.038 0.173,0.039 0.177,0.042 0.177,0.045 0.174,0.046 0.176,0.05 0.167,0.049 0.169,0.051 0.178,0.057 0.17,0.057 0.166,0.057 0.169,0.061 0.164,0.062 0.193,0.075 0.303,0.124 0.324,0.142 0.32,0.15 0.313,0.157 0.31,0.164 0.308,0.173 0.301,0.178 0.294,0.184 0.289,0.191 0.287,0.199 0.281,0.206 0.273,0.209 0.269,0.217 0.265,0.224 0.26,0.231 0.253,0.236 0.246,0.24 0.24,0.246 0.235,0.252 0.231,0.26 0.225,0.266 0.215,0.267 0.212,0.275 0.206,0.282 0.197,0.284 0.19,0.289 0.187,0.297 0.178,0.301 0.171,0.304 0.165,0.313 0.155,0.311 0.151,0.322 0.143,0.327 0.121,0.292 0.077,0.199 0.062,0.166 0.06,0.166 0.06,0.173 0.056,0.165 0.056,0.177 0.051,0.167 0.051,0.174 0.049,0.177 0.045,0.168 0.044,0.174 0.042,0.176 0.042,0.186 0.037,0.176 0.034,0.168 0.034,0.184 0.032,0.185 0.028,0.176 0.026,0.176 0.025,0.185 0.023,0.185 0.02,0.184 0.017,0.185 0.015,0.174 0.013,0.184 0.011,0.192 0.008,0.183 0.006,0.183 0.004,0.191 v 0.155 74.86 0.155 l -0.004,0.191 -0.006,0.182 -0.008,0.183 -0.011,0.193 -0.013,0.183 -0.015,0.175 -0.017,0.185 -0.02,0.184 -0.023,0.184 -0.025,0.185 -0.026,0.176 -0.028,0.176 -0.032,0.185 -0.034,0.185 -0.034,0.168 -0.037,0.176 -0.042,0.184 -0.042,0.178 -0.045,0.175 -0.044,0.167 -0.049,0.176 -0.051,0.175 -0.051,0.167 -0.056,0.175 -0.056,0.167 -0.06,0.174 -0.06,0.165 -0.062,0.166 -0.077,0.198 -0.12,0.292 -0.144,0.328 -0.151,0.321 -0.155,0.312 -0.166,0.313 -0.17,0.304 -0.178,0.301 -0.187,0.297 -0.19,0.289 -0.197,0.283 -0.206,0.282 -0.212,0.275 -0.215,0.268 -0.225,0.266 -0.231,0.26 -0.235,0.252 -0.24,0.246 -0.246,0.24 -0.253,0.236 -0.26,0.23 -0.263,0.224 -0.271,0.218 -0.274,0.21 -0.28,0.205 -0.286,0.198 -0.29,0.192 -0.296,0.185 -0.299,0.177 -0.308,0.173 -0.31,0.164 -0.313,0.156 -0.32,0.15 -0.324,0.143 -0.299,0.122 -0.197,0.077 -0.169,0.063 -0.164,0.06 -0.166,0.057 -0.17,0.057 -0.178,0.057 -0.169,0.051 -0.167,0.049 -0.176,0.049 -0.174,0.047 -0.173,0.043 -0.181,0.044 -0.178,0.039 -0.173,0.037 -0.18,0.036 -0.178,0.033 -0.18,0.032 -0.181,0.029 -0.176,0.026 -0.185,0.025 -0.185,0.022 -0.18,0.02 -0.184,0.017 -0.183,0.016 -0.184,0.013 -0.188,0.01 -0.183,0.008 -0.183,0.006 -0.186,0.004 -0.155,0.001 H 566.6 v 2.77 h 52.776 v -135.644 -0.155 l 0.004,-0.191 0.006,-0.191 0.008,-0.175 0.01,-0.183 0.014,-0.192 0.015,-0.175 0.017,-0.184 0.021,-0.194 0.022,-0.176 0.023,-0.176 0.028,-0.185 0.029,-0.185 0.031,-0.176 0.033,-0.176 0.037,-0.185 0.037,-0.175 0.038,-0.169 0.042,-0.176 0.047,-0.185 0.046,-0.175 0.047,-0.166 0.049,-0.169 0.056,-0.184 0.053,-0.165 0.055,-0.166 0.061,-0.175 0.06,-0.167 0.062,-0.164 0.074,-0.19 0.125,-0.304 0.142,-0.323 0.149,-0.319 0.157,-0.316 0.166,-0.312 0.172,-0.307 0.176,-0.297 0.185,-0.296 0.193,-0.292 0.198,-0.285 0.203,-0.278 0.211,-0.275 0.22,-0.272 0.222,-0.263 0.228,-0.257 0.238,-0.255 0.24,-0.246 0.247,-0.242 0.255,-0.236 0.256,-0.228 0.263,-0.223 0.271,-0.218 0.275,-0.211 0.281,-0.206 0.284,-0.197 0.29,-0.191 0.297,-0.186 0.3,-0.178 0.305,-0.171 0.312,-0.165 0.315,-0.157 0.319,-0.15 0.323,-0.142 0.3,-0.123 0.193,-0.075 0.167,-0.063 0.169,-0.061 0.173,-0.06 0.168,-0.055 0.166,-0.054 0.174,-0.053 0.173,-0.051 0.172,-0.048 0.177,-0.046 0.174,-0.044 0.171,-0.041 0.182,-0.041 0.177,-0.038 0.176,-0.035 0.18,-0.034 0.181,-0.031 0.18,-0.029 0.181,-0.027 0.18,-0.024 0.184,-0.022 0.185,-0.02 0.18,-0.018 0.184,-0.015 0.183,-0.013 0.183,-0.01 0.188,-0.009 0.183,-0.005 0.186,-0.004 0.159,-0.001 h 61.108 l 0.16,0.001 0.186,0.004 0.183,0.005 0.187,0.009 0.184,0.01 0.184,0.013 0.183,0.015 0.179,0.018 0.185,0.02 0.186,0.022 0.179,0.024 0.18,0.027 0.182,0.029 0.18,0.031 0.182,0.034 0.176,0.035 0.175,0.038 0.18,0.04 0.171,0.041 0.179,0.045 0.174,0.046 0.172,0.048 0.176,0.052 0.168,0.051 0.17,0.055 0.17,0.056 0.17,0.059 0.169,0.061 0.164,0.062 0.195,0.075 0.301,0.124 0.324,0.142 0.32,0.151 0.313,0.156 0.312,0.165 0.304,0.171 0.301,0.178 0.297,0.186 0.289,0.191 0.285,0.197 0.281,0.206 0.275,0.211 0.268,0.216 0.264,0.223 0.261,0.232 0.254,0.237 0.245,0.239 0.24,0.246 0.235,0.252 0.231,0.26 0.225,0.266 0.215,0.266 0.213,0.278 0.206,0.282 0.195,0.281 0.19,0.288 0.188,0.3 0.178,0.301 0.17,0.303 0.166,0.312 0.155,0.312 0.152,0.323 0.143,0.327 0.12,0.292 0.077,0.198 0.062,0.164 0.06,0.167 0.061,0.175 0.055,0.166 0.055,0.174 0.051,0.166 0.052,0.178 0.049,0.175 0.044,0.166 0.045,0.176 0.042,0.176 0.042,0.186 0.037,0.176 0.033,0.167 0.035,0.185 0.032,0.185 0.028,0.176 0.026,0.176 0.025,0.185 0.023,0.185 0.02,0.185 0.017,0.184 0.015,0.175 0.013,0.183 0.011,0.192 0.008,0.184 0.006,0.182 0.004,0.191 v 0.155 61.106 0.155 l -0.004,0.191 -0.006,0.182 -0.008,0.183 -0.011,0.193 -0.013,0.183 -0.015,0.175 -0.017,0.184 -0.02,0.185 -0.023,0.184 -0.025,0.185 -0.026,0.176 -0.028,0.176 -0.032,0.185 -0.034,0.185 -0.034,0.168 -0.037,0.176 -0.042,0.186 -0.042,0.176 -0.045,0.175 -0.044,0.167 -0.049,0.175 -0.051,0.176 -0.052,0.168 -0.055,0.175 -0.055,0.165 -0.061,0.175 -0.06,0.165 -0.062,0.166 -0.078,0.199 -0.119,0.291 -0.144,0.328 -0.151,0.321 -0.155,0.312 -0.165,0.312 -0.171,0.305 -0.178,0.301 -0.187,0.297 -0.19,0.289 -0.197,0.283 -0.206,0.282 -0.212,0.276 -0.215,0.267 -0.226,0.267 -0.23,0.258 -0.234,0.252 -0.241,0.247 -0.246,0.24 -0.253,0.236 -0.26,0.23 -0.265,0.225 -0.269,0.217 -0.273,0.209 -0.281,0.206 -0.287,0.199 -0.289,0.191 -0.294,0.184 -0.301,0.178 -0.308,0.173 -0.312,0.165 -0.311,0.155 -0.318,0.15 -0.326,0.143 -0.303,0.124 -0.193,0.075 -0.164,0.062 -0.169,0.061 -0.17,0.059 -0.166,0.055 -0.174,0.055 -0.173,0.053 -0.171,0.05 -0.172,0.048 -0.17,0.046 -0.183,0.046 -0.175,0.042 -0.171,0.038 -0.18,0.038 -0.18,0.036 -0.178,0.033 -0.18,0.032 -0.182,0.029 -0.18,0.026 -0.179,0.024 -0.181,0.023 -0.185,0.02 -0.184,0.017 -0.183,0.016 -0.189,0.013 -0.183,0.01 -0.179,0.008 -0.187,0.006 -0.186,0.004 -0.155,10e-4 h -40.245 v 60.065 h 73.176 V 738.781 l 0.002,-0.155 0.003,-0.173 0.006,-0.192 0.009,-0.192 0.01,-0.174 0.012,-0.183 0.016,-0.193 0.018,-0.185 0.019,-0.175 0.023,-0.185 0.024,-0.175 0.027,-0.186 0.029,-0.185 0.031,-0.176 0.033,-0.175 0.035,-0.177 0.039,-0.185 0.04,-0.177 0.042,-0.176 0.042,-0.166 0.047,-0.176 0.049,-0.177 0.051,-0.174 0.054,-0.176 0.054,-0.168 0.055,-0.165 0.057,-0.165 0.063,-0.174 0.062,-0.166 0.074,-0.19 0.125,-0.305 0.142,-0.323 0.151,-0.322 0.157,-0.315 0.161,-0.305 0.173,-0.308 0.179,-0.301 0.184,-0.294 0.192,-0.292 0.199,-0.287 0.204,-0.279 0.211,-0.275 0.219,-0.27 0.222,-0.263 0.231,-0.26 0.233,-0.25 0.24,-0.246 0.25,-0.245 0.253,-0.235 0.258,-0.229 0.265,-0.224 0.267,-0.215 0.274,-0.211 0.282,-0.206 0.287,-0.199 0.292,-0.193 0.291,-0.182 0.301,-0.178 0.306,-0.172 0.31,-0.164 0.317,-0.158 0.319,-0.15 0.323,-0.142 0.305,-0.125 0.188,-0.073 0.167,-0.063 0.17,-0.061 0.165,-0.057 0.173,-0.058 0.172,-0.055 0.171,-0.052 0.168,-0.049 0.176,-0.05 0.177,-0.046 0.174,-0.045 0.177,-0.042 0.171,-0.038 0.18,-0.039 0.182,-0.036 0.176,-0.033 0.181,-0.031 0.18,-0.029 0.181,-0.027 0.18,-0.024 0.18,-0.022 0.184,-0.02 0.185,-0.018 0.184,-0.015 0.183,-0.013 0.188,-0.011 0.183,-0.008 0.183,-0.006 0.186,-0.003 0.155,-10e-4 h 5.542 l 0.155,10e-4 0.186,0.003 0.183,0.006 0.183,0.008 0.188,0.011 0.184,0.013 0.183,0.015 0.185,0.018 0.185,0.02 0.179,0.022 0.18,0.024 0.181,0.027 0.18,0.029 0.181,0.031 0.176,0.033 0.18,0.036 0.182,0.039 0.171,0.038 0.175,0.042 0.179,0.045 0.176,0.047 0.174,0.049 0.165,0.048 0.171,0.052 0.178,0.057 0.17,0.057 0.166,0.057 0.169,0.061 0.164,0.062 0.193,0.075 0.303,0.124 0.324,0.142 0.32,0.15 0.313,0.157 0.31,0.164 0.308,0.173 0.301,0.178 0.294,0.184 0.289,0.191 0.287,0.199 0.281,0.206 0.273,0.209 0.272,0.219 0.262,0.222 0.258,0.229 0.255,0.238 0.246,0.24 0.24,0.246 0.238,0.255 0.228,0.257 0.222,0.263 0.221,0.273 0.209,0.272 0.204,0.279 0.199,0.287 0.19,0.289 0.187,0.297 0.178,0.301 0.171,0.304 0.165,0.313 0.157,0.315 0.149,0.318 0.142,0.323 0.122,0.296 0.077,0.199 0.065,0.174 0.057,0.158 0.057,0.164 0.059,0.174 0.056,0.177 0.054,0.175 0.048,0.166 0.047,0.168 0.047,0.177 0.044,0.174 0.044,0.185 0.04,0.177 0.035,0.167 0.037,0.186 0.033,0.175 0.031,0.176 0.029,0.185 0.026,0.176 0.025,0.185 0.023,0.185 0.02,0.184 0.017,0.185 0.015,0.174 0.013,0.184 0.011,0.192 0.008,0.183 0.006,0.183 0.004,0.191 v 0.155 103.103 h 18.733 v -92.103 -0.155 l 0.004,-0.191 0.006,-0.183 0.008,-0.183 0.011,-0.192 0.013,-0.184 0.015,-0.174 0.017,-0.185 0.02,-0.184 0.023,-0.185 0.025,-0.185 0.026,-0.176 0.028,-0.176 0.032,-0.185 0.034,-0.184 0.036,-0.177 0.035,-0.167 0.04,-0.177 0.044,-0.185 0.044,-0.174 0.045,-0.168 0.049,-0.177 0.051,-0.174 0.051,-0.167 0.056,-0.177 0.059,-0.174 0.057,-0.164 0.057,-0.158 0.065,-0.174 0.077,-0.199 0.122,-0.296 0.142,-0.323 0.149,-0.318 0.157,-0.315 0.165,-0.313 0.171,-0.304 0.178,-0.301 0.187,-0.297 0.19,-0.289 0.199,-0.287 0.204,-0.279 0.209,-0.272 0.218,-0.27 0.225,-0.266 0.231,-0.26 0.235,-0.252 0.24,-0.246 0.246,-0.24 0.255,-0.238 0.258,-0.229 0.262,-0.222 0.272,-0.219 0.273,-0.209 0.281,-0.206 0.287,-0.199 0.289,-0.191 0.294,-0.184 0.301,-0.178 0.308,-0.173 0.31,-0.164 0.313,-0.157 0.32,-0.15 0.324,-0.142 0.303,-0.124 0.193,-0.075 0.164,-0.062 0.169,-0.061 0.166,-0.057 0.17,-0.057 0.178,-0.057 0.171,-0.052 0.165,-0.048 0.174,-0.049 0.176,-0.047 0.179,-0.045 0.175,-0.042 0.171,-0.038 0.182,-0.039 0.18,-0.036 0.176,-0.033 0.181,-0.031 0.18,-0.029 0.181,-0.027 0.179,-0.024 0.18,-0.022 0.186,-0.02 0.184,-0.018 0.183,-0.015 0.184,-0.013 0.188,-0.011 0.183,-0.008 0.183,-0.006 0.186,-0.003 0.155,-10e-4 h 55.098 l 0.155,10e-4 0.186,0.003 0.183,0.006 0.183,0.008 0.188,0.011 0.184,0.013 0.183,0.015 0.184,0.018 0.185,0.02 0.18,0.022 0.18,0.024 0.181,0.027 0.181,0.029 0.18,0.031 0.178,0.033 0.18,0.036 0.178,0.038 0.173,0.039 0.177,0.042 0.177,0.045 0.174,0.046 0.174,0.049 0.17,0.05 0.171,0.052 0.175,0.056 0.17,0.057 0.166,0.057 0.169,0.061 0.164,0.062 0.193,0.075 0.303,0.124 0.322,0.142 0.322,0.15 0.315,0.158 0.308,0.163 0.308,0.173 0.301,0.178 0.294,0.184 0.289,0.191 0.287,0.199 0.281,0.206 0.273,0.209 0.269,0.217 0.265,0.224 0.26,0.231 0.253,0.236 0.246,0.24 0.24,0.246 0.235,0.252 0.231,0.26 0.225,0.266 0.215,0.267 0.212,0.275 0.206,0.282 0.197,0.284 0.19,0.289 0.187,0.297 0.178,0.301 0.171,0.304 0.165,0.313 0.155,0.311 0.151,0.322 0.142,0.323 0.124,0.301 0.075,0.194 0.062,0.166 0.063,0.174 0.057,0.165 0.056,0.165 0.056,0.177 0.051,0.167 0.051,0.174 0.049,0.177 0.045,0.168 0.044,0.174 0.042,0.176 0.042,0.186 0.037,0.176 0.034,0.168 0.034,0.184 0.032,0.185 0.028,0.176 0.026,0.176 0.025,0.185 0.023,0.185 0.02,0.184 0.017,0.185 0.015,0.174 0.013,0.184 0.011,0.192 0.008,0.183 0.006,0.183 0.004,0.191 v 0.155 3.805 0.155 l -0.004,0.191 -0.006,0.182 -0.008,0.183 -0.011,0.193 -0.013,0.183 -0.015,0.175 -0.017,0.185 -0.02,0.184 -0.023,0.184 -0.025,0.185 -0.026,0.176 -0.028,0.176 -0.032,0.185 -0.034,0.185 -0.034,0.168 -0.037,0.176 -0.042,0.186 -0.042,0.176 -0.044,0.174 -0.045,0.168 -0.049,0.176 -0.051,0.175 -0.051,0.167 -0.056,0.176 -0.056,0.166 -0.057,0.164 -0.063,0.175 -0.062,0.166 -0.075,0.194 -0.124,0.301 -0.142,0.323 -0.15,0.32 -0.156,0.313 -0.166,0.313 -0.17,0.304 -0.178,0.301 -0.187,0.297 -0.19,0.289 -0.197,0.283 -0.206,0.282 -0.212,0.276 -0.215,0.267 -0.225,0.266 -0.231,0.26 -0.235,0.252 -0.24,0.246 -0.246,0.24 -0.253,0.236 -0.26,0.23 -0.263,0.224 -0.271,0.218 -0.274,0.21 -0.28,0.205 -0.286,0.198 -0.29,0.192 -0.296,0.185 -0.299,0.177 -0.308,0.173 -0.308,0.163 -0.315,0.157 -0.322,0.151 -0.322,0.142 -0.303,0.124 -0.193,0.075 -0.164,0.062 -0.169,0.061 -0.166,0.057 -0.17,0.057 -0.175,0.056 -0.171,0.052 -0.17,0.05 -0.174,0.048 -0.174,0.047 -0.177,0.044 -0.177,0.043 -0.173,0.039 -0.178,0.037 -0.18,0.036 -0.178,0.033 -0.18,0.032 -0.181,0.029 -0.181,0.026 -0.18,0.025 -0.18,0.022 -0.185,0.02 -0.184,0.017 -0.183,0.016 -0.184,0.013 -0.188,0.01 -0.183,0.008 -0.183,0.006 -0.186,0.004 -0.155,10e-4 h -36.806 v 12.854 h 36.801 l 0.16,10e-4 0.186,0.004 0.183,0.005 0.187,0.009 0.184,0.01 0.184,0.013 0.183,0.015 0.179,0.018 0.185,0.02 0.185,0.022 0.18,0.024 0.181,0.027 0.181,0.029 0.18,0.031 0.182,0.034 0.176,0.035 0.173,0.037 0.182,0.041 0.173,0.042 0.177,0.044 0.174,0.046 0.17,0.048 0.178,0.052 0.171,0.052 0.167,0.054 0.17,0.056 0.174,0.061 0.165,0.059 0.164,0.062 0.197,0.076 0.297,0.122 0.324,0.142 0.322,0.152 0.315,0.157 0.31,0.164 0.304,0.171 0.301,0.178 0.297,0.186 0.289,0.191 0.284,0.197 0.282,0.206 0.275,0.211 0.268,0.216 0.265,0.224 0.26,0.231 0.253,0.235 0.246,0.241 0.24,0.245 0.235,0.253 0.231,0.26 0.226,0.267 0.214,0.265 0.212,0.276 0.207,0.284 0.195,0.281 0.19,0.288 0.188,0.3 0.178,0.301 0.17,0.303 0.166,0.313 0.155,0.312 0.151,0.321 0.142,0.324 0.124,0.3 0.075,0.194 0.062,0.164 0.063,0.175 0.058,0.167 0.055,0.166 0.056,0.175 0.05,0.166 0.052,0.175 0.049,0.177 0.044,0.166 0.045,0.176 0.042,0.176 0.042,0.186 0.037,0.176 0.033,0.167 0.035,0.185 0.032,0.185 0.028,0.176 0.026,0.176 0.025,0.185 0.023,0.185 0.02,0.185 0.017,0.184 0.015,0.175 0.013,0.183 0.011,0.193 0.008,0.182 0.006,0.183 0.004,0.191 v 0.155 3.81 0.155 l -0.004,0.191 -0.006,0.182 -0.008,0.183 -0.011,0.193 -0.013,0.183 -0.015,0.175 -0.017,0.184 -0.02,0.185 -0.023,0.185 -0.025,0.184 -0.026,0.176 -0.028,0.176 -0.032,0.185 -0.034,0.185 -0.034,0.168 -0.037,0.176 -0.042,0.184 -0.042,0.177 -0.045,0.176 -0.044,0.168 -0.049,0.175 -0.051,0.175 -0.051,0.167 -0.056,0.175 -0.056,0.167 -0.057,0.166 -0.063,0.173 -0.062,0.166 -0.075,0.194 -0.124,0.3 -0.142,0.324 -0.151,0.321 -0.155,0.312 -0.166,0.313 -0.17,0.304 -0.178,0.301 -0.187,0.297 -0.19,0.289 -0.196,0.282 -0.207,0.283 -0.212,0.277 -0.215,0.266 -0.225,0.266 -0.23,0.258 -0.236,0.254 -0.242,0.247 -0.244,0.239 -0.252,0.235 -0.261,0.231 -0.265,0.225 -0.269,0.217 -0.274,0.21 -0.28,0.205 -0.286,0.198 -0.289,0.191 -0.297,0.186 -0.301,0.178 -0.306,0.172 -0.308,0.163 -0.315,0.157 -0.322,0.151 -0.322,0.142 -0.299,0.122 -0.197,0.077 -0.169,0.063 -0.164,0.06 -0.166,0.057 -0.17,0.057 -0.171,0.054 -0.171,0.053 -0.178,0.052 -0.174,0.049 -0.17,0.045 -0.173,0.043 -0.181,0.044 -0.178,0.039 -0.173,0.037 -0.18,0.036 -0.178,0.033 -0.176,0.031 -0.185,0.03 -0.181,0.026 -0.18,0.025 -0.185,0.022 -0.18,0.02 -0.184,0.017 -0.183,0.016 -0.184,0.013 -0.184,0.01 -0.187,0.009 -0.187,0.005 -0.182,0.004 -0.155,10e-4 h -36.806 v 14.455 h 36.801 l 0.16,10e-4 0.186,0.004 0.183,0.005 0.187,0.009 0.184,0.01 0.184,0.013 0.183,0.015 0.179,0.018 0.185,0.02 0.185,0.022 0.18,0.024 0.181,0.027 0.181,0.029 0.18,0.031 0.182,0.034 0.176,0.035 0.173,0.037 0.182,0.041 0.173,0.042 0.177,0.044 0.174,0.046 0.17,0.048 0.178,0.052 0.171,0.052 0.167,0.054 0.17,0.056 0.174,0.061 0.165,0.059 0.164,0.062 0.197,0.076 0.297,0.122 0.324,0.142 0.322,0.152 0.315,0.157 0.31,0.164 0.304,0.171 0.301,0.178 0.297,0.186 0.289,0.191 0.284,0.197 0.282,0.206 0.275,0.211 0.268,0.216 0.265,0.224 0.26,0.231 0.253,0.235 0.246,0.241 0.24,0.245 0.235,0.253 0.231,0.26 0.226,0.267 0.214,0.265 0.212,0.276 0.207,0.284 0.195,0.281 0.19,0.288 0.188,0.3 0.178,0.301 0.17,0.303 0.166,0.313 0.155,0.312 0.151,0.321 0.142,0.324 0.124,0.3 0.075,0.194 0.062,0.164 0.063,0.175 0.058,0.167 0.055,0.166 0.056,0.175 0.05,0.166 0.052,0.175 0.049,0.177 0.044,0.166 0.045,0.176 0.042,0.176 0.042,0.186 0.037,0.176 0.033,0.167 0.035,0.185 0.032,0.185 0.028,0.176 0.026,0.176 0.025,0.185 0.023,0.185 0.02,0.185 0.017,0.184 0.015,0.175 0.013,0.183 0.011,0.191 h 40.764 l 0.269,0.002 0.312,0.01 0.306,0.014 0.303,0.02 0.299,0.025 0.293,0.03 0.29,0.034 0.286,0.038 0.284,0.043 0.282,0.046 0.274,0.05 0.276,0.054 0.271,0.057 0.268,0.061 0.267,0.064 0.263,0.067 0.262,0.07 0.259,0.073 0.257,0.076 0.255,0.078 0.255,0.083 0.25,0.084 0.249,0.087 0.249,0.09 0.245,0.093 0.246,0.095 0.243,0.098 0.241,0.101 0.241,0.103 0.237,0.106 0.237,0.108 0.237,0.111 0.237,0.115 0.234,0.117 0.229,0.118 0.23,0.121 0.232,0.126 0.229,0.128 0.228,0.13 0.228,0.135 0.224,0.135 0.225,0.139 0.224,0.143 0.222,0.145 0.221,0.149 0.222,0.153 0.221,0.157 0.216,0.158 0.219,0.164 0.217,0.167 0.215,0.171 0.215,0.175 0.213,0.178 0.215,0.186 0.212,0.189 0.21,0.193 0.211,0.2 0.207,0.203 0.209,0.212 0.207,0.217 0.204,0.22 0.205,0.231 0.202,0.236 0.17,0.206 43.615,54.05 1.481,2.577 0.613,2.908 -0.315,2.956 -1.214,2.713 -1.993,2.205 -2.576,1.482 z"
   style="fill:#000000"
   id="path170" />
        <path
   d="m 957.565,909.297 -43.586,-54.013 c -1.727,-2.14 -5.39,-3.891 -8.14,-3.891 h -45.201 c -2.749,0 -5,-2.25 -5,-5 v -3.76 c 0,-2.75 -2.249,-5 -5,-5 h -41.275 c -2.75,0 -5,-2.25 -5,-5 v -23.455 c 0,-2.75 2.25,-5 5,-5 h 41.275 c 2.751,0 5,-2.25 5,-5 v -3.756 c 0,-2.75 -2.249,-5 -5,-5 h -41.275 c -2.75,0 -5,-2.25 -5,-5 v -21.854 c 0,-2.75 2.25,-5 5,-5 h 41.275 c 2.751,0 5,-2.25 5,-5 v -3.751 c 0,-2.75 -2.249,-5 -5,-5 h -55.035 c -2.75,0 -5,2.25 -5,5 v 96.576 c 0,2.75 -2.25,5 -5,5 h -27.731 c -2.75,0 -5,-2.25 -5,-5 V 738.817 c 0,-2.75 -2.25,-5 -5,-5 h -5.48 c -2.75,0 -5,2.25 -5,5 v 107.576 c 0,2.75 -2.25,5 -5,5 h -82.175 c -2.75,0 -5,-2.25 -5,-5 v -69.065 c 0,-2.75 2.25,-5 5,-5 h 44.713 c 2.75,0 5,-2.25 5,-5 v -61.052 c 0,-2.75 -2.25,-5 -5,-5 h -61.055 c -2.749,0 -5,2.25 -5,5 v 140.117 c 0,2.75 -2.249,5 -5,5 H 562.1 c -2.75,0 -5,-2.25 -5,-5 v -11.77 c 0,-2.75 2.25,-5 5,-5 h 24.32 c 2.75,0 5,-2.25 5,-5 v -74.806 c 0,-2.75 -2.25,-5 -5,-5 l -74.813,-0.002 c -2.75,0 -5,2.25 -5,5 v 74.808 c 0,2.75 2.25,5 5,5 h 23.523 c 2.75,0 5,2.25 5,5 v 11.77 c 0,2.75 -2.25,5 -5,5 h -61.771 c -2.75,0 -6.51,-1.668 -8.357,-3.706 L 425.835,804.45 c -1.847,-2.038 -1.106,-3.706 1.643,-3.706 h 37.671 c 2.749,0 5,-2.25 5,-5 v -45.929 c 0,-2.75 -2.251,-5 -5,-5 h -53.638 c -2.75,0 -5,2.25 -5,5 v 96.578 c 0,2.75 -2.25,5 -5,5 h -28.303 c -2.75,0 -5,-2.25 -5,-5 V 720.031 c 0,-2.75 2.25,-5 5,-5 h 47.293 c 2.75,0 5,-2.25 5,-5 v -3.755 c 0,-2.75 -2.25,-5 -5,-5 H 302.156 c -2.75,0 -5,2.25 -5,5 v 3.755 c 0,2.75 2.25,5 5,5 h 46.292 c 2.75,0 5,2.25 5,5 v 126.362 c 0,2.75 -2.25,5 -5,5 l -27.16,-0.002 c -2.749,0 -5,-2.25 -5,-5 v -3.756 c 0,-2.75 -2.249,-5 -5,-5 H 270.02 c -2.751,0 -5,-2.25 -5,-5 v -23.459 c 0,-2.75 2.249,-5 5,-5 h 41.268 c 2.751,0 5,-2.25 5,-5 v -3.754 c 0,-2.75 -2.249,-5 -5,-5 H 270.02 c -2.751,0 -5,-2.25 -5,-5 v -21.854 c 0,-2.75 2.249,-5 5,-5 h 41.268 c 2.751,0 5,-2.25 5,-5 v -3.753 c 0,-2.75 -2.249,-5 -5,-5 h -55.027 c -2.75,0 -5,2.25 -5,5 v 96.576 c 0,2.75 -2.25,5 -5,5 h -34.474 c -2.749,0 -6.151,-1.934 -7.556,-4.296 l -41.959,-70.473 c -1.406,-2.362 -0.307,-4.296 2.444,-4.296 h 45.083 c 2.75,0 5,-2.25 5,-5 v -61.05 c 0,-2.75 -2.25,-5 -5,-5 h -61.051 c -2.75,0 -5,2.25 -5,5 v 140.115 c 0,2.75 -2.25,5 -5,5 H 93.716 c -2.751,0 -6.438,-1.732 -8.193,-3.849 L 41.229,794.143"
   style="fill:none;stroke:#ffe400;stroke-width:10px"
   id="path172" />
        <path
   d="m 744.457,717.386 -0.358,-0.004 -0.358,-0.013 -0.355,-0.021 -0.354,-0.029 -0.358,-0.039 -0.359,-0.047 -0.352,-0.055 -0.351,-0.063 -0.357,-0.073 -0.351,-0.081 -0.35,-0.089 -0.35,-0.099 -0.346,-0.107 -0.345,-0.115 -0.344,-0.124 -0.339,-0.133 -0.311,-0.13 -0.199,-0.087 -0.167,-0.076 -0.165,-0.078 -0.165,-0.079 -0.167,-0.084 -0.166,-0.086 -0.164,-0.087 -0.163,-0.089 -0.162,-0.092 -0.161,-0.093 -0.159,-0.095 -0.163,-0.1 -0.156,-0.099 -0.158,-0.102 -0.158,-0.106 -0.152,-0.104 -0.158,-0.112 -0.156,-0.113 -0.146,-0.109 -0.147,-0.111 -0.152,-0.119 -0.154,-0.124 -0.146,-0.121 -0.142,-0.12 -0.147,-0.128 -0.138,-0.123 -0.144,-0.131 -0.144,-0.135 -0.132,-0.128 -0.113,-0.111 -14.724,-14.725 -0.114,-0.115 -0.125,-0.13 -0.133,-0.141 -0.133,-0.146 -0.128,-0.144 -0.126,-0.145 -0.117,-0.138 -0.123,-0.149 -0.121,-0.152 -0.116,-0.147 -0.114,-0.15 -0.115,-0.154 -0.114,-0.158 -0.105,-0.149 -0.105,-0.153 -0.106,-0.159 -0.103,-0.158 -0.099,-0.158 -0.094,-0.154 -0.102,-0.17 -0.091,-0.157 -0.089,-0.158 -0.092,-0.167 -0.087,-0.165 -0.088,-0.17 -0.08,-0.161 -0.078,-0.16 -0.081,-0.172 -0.077,-0.171 -0.085,-0.192 -0.128,-0.308 -0.134,-0.343 -0.125,-0.347 -0.114,-0.339 -0.108,-0.351 -0.099,-0.352 -0.088,-0.347 -0.081,-0.351 -0.072,-0.351 -0.063,-0.352 -0.056,-0.358 -0.047,-0.358 -0.038,-0.355 -0.029,-0.354 -0.022,-0.355 -0.012,-0.356 -0.005,-0.36 0.005,-0.361 0.012,-0.355 0.022,-0.355 0.029,-0.355 0.038,-0.354 0.047,-0.359 0.056,-0.358 0.063,-0.352 0.072,-0.35 0.081,-0.351 0.089,-0.349 0.098,-0.351 0.108,-0.35 0.114,-0.34 0.124,-0.345 0.135,-0.345 0.129,-0.308 0.084,-0.192 0.077,-0.171 0.08,-0.169 0.079,-0.163 0.08,-0.161 0.087,-0.168 0.089,-0.168 0.091,-0.165 0.089,-0.159 0.091,-0.157 0.102,-0.17 0.096,-0.156 0.096,-0.153 0.104,-0.161 0.108,-0.161 0.103,-0.15 0.105,-0.149 0.113,-0.156 0.116,-0.157 0.116,-0.152 0.114,-0.145 0.121,-0.151 0.123,-0.149 0.115,-0.136 0.128,-0.148 0.13,-0.146 0.129,-0.141 0.135,-0.144 0.125,-0.129 0.111,-0.114 14.72,-14.72 0.113,-0.111 0.142,-0.137 0.139,-0.13 0.143,-0.132 0.144,-0.127 0.137,-0.119 0.149,-0.127 0.149,-0.123 0.146,-0.117 0.15,-0.118 0.151,-0.115 0.155,-0.115 0.148,-0.107 0.154,-0.109 0.16,-0.109 0.154,-0.103 0.155,-0.101 0.16,-0.101 0.162,-0.099 0.159,-0.096 0.156,-0.09 0.17,-0.096 0.164,-0.09 0.156,-0.083 0.17,-0.088 0.167,-0.083 0.165,-0.08 0.161,-0.076 0.17,-0.077 0.2,-0.088 0.309,-0.13 0.344,-0.133 0.342,-0.124 0.343,-0.115 0.347,-0.107 0.35,-0.098 0.351,-0.09 0.352,-0.081 0.351,-0.072 0.352,-0.063 0.356,-0.056 0.358,-0.047 0.355,-0.038 0.354,-0.03 0.358,-0.021 0.358,-0.013 0.358,-0.004 0.356,0.004 0.358,0.013 0.357,0.021 0.355,0.03 0.357,0.038 0.356,0.047 0.353,0.055 0.354,0.063 0.354,0.073 0.353,0.081 0.348,0.089 0.347,0.098 0.35,0.107 0.347,0.116 0.342,0.124 0.338,0.132 0.313,0.131 0.195,0.085 0.167,0.076 0.169,0.08 0.165,0.079 0.167,0.084 0.166,0.085 0.161,0.086 0.163,0.089 0.162,0.092 0.16,0.093 0.164,0.097 0.158,0.097 0.16,0.101 0.155,0.101 0.157,0.105 0.16,0.109 0.151,0.107 0.153,0.111 0.15,0.111 0.149,0.114 0.152,0.119 0.154,0.123 0.144,0.119 0.139,0.118 0.145,0.126 0.146,0.13 0.148,0.135 0.132,0.124 0.137,0.131 0.12,0.119 14.714,14.713 0.113,0.113 0.136,0.142 0.133,0.142 0.124,0.136 0.13,0.145 0.128,0.148 0.117,0.139 0.123,0.149 0.12,0.148 0.113,0.145 0.118,0.155 0.115,0.154 0.113,0.156 0.106,0.152 0.102,0.148 0.108,0.161 0.105,0.163 0.096,0.152 0.095,0.155 0.098,0.162 0.095,0.165 0.095,0.168 0.086,0.157 0.089,0.167 0.087,0.17 0.075,0.151 0.083,0.17 0.085,0.18 0.072,0.161 0.083,0.187 0.131,0.314 0.134,0.344 0.126,0.347 0.114,0.343 0.107,0.345 0.098,0.352 0.088,0.345 0.082,0.354 0.073,0.356 0.062,0.347 0.056,0.358 0.047,0.359 0.038,0.349 0.03,0.36 0.021,0.36 0.012,0.35 0.005,0.361 -0.005,0.36 -0.012,0.351 -0.021,0.36 -0.03,0.36 -0.038,0.349 -0.047,0.359 -0.056,0.358 -0.062,0.346 -0.073,0.357 -0.082,0.354 -0.087,0.343 -0.099,0.353 -0.107,0.345 -0.114,0.344 -0.126,0.347 -0.133,0.343 -0.131,0.312 -0.083,0.188 -0.074,0.165 -0.084,0.178 -0.082,0.168 -0.076,0.153 -0.086,0.168 -0.09,0.169 -0.086,0.157 -0.094,0.166 -0.095,0.164 -0.097,0.163 -0.097,0.157 -0.096,0.152 -0.104,0.161 -0.108,0.161 -0.103,0.151 -0.105,0.149 -0.112,0.156 -0.115,0.154 -0.118,0.155 -0.115,0.147 -0.12,0.149 -0.123,0.149 -0.115,0.136 -0.128,0.148 -0.13,0.145 -0.124,0.136 -0.135,0.144 -0.134,0.14 -0.111,0.112 -14.716,14.719 -0.113,0.113 -0.142,0.136 -0.139,0.131 -0.143,0.131 -0.143,0.127 -0.138,0.12 -0.146,0.124 -0.152,0.125 -0.149,0.12 -0.147,0.115 -0.151,0.115 -0.151,0.113 -0.152,0.109 -0.157,0.112 -0.153,0.104 -0.158,0.106 -0.158,0.102 -0.156,0.099 -0.163,0.1 -0.159,0.095 -0.156,0.091 -0.162,0.091 -0.171,0.094 -0.165,0.088 -0.162,0.083 -0.167,0.084 -0.165,0.079 -0.161,0.076 -0.17,0.078 -0.202,0.088 -0.307,0.129 -0.341,0.133 -0.344,0.124 -0.346,0.116 -0.347,0.106 -0.348,0.099 -0.35,0.089 -0.35,0.081 -0.357,0.073 -0.352,0.063 -0.353,0.055 -0.358,0.047 -0.357,0.039 -0.355,0.029 -0.355,0.021 -0.358,0.013 z m 0,-22.067 7.601,-7.603 -7.602,-7.601 -7.602,7.602 z"
   style="fill:#000000"
   id="path174" />
        <path
   d="m 744.457,712.886 -0.251,-0.003 -0.251,-0.009 -0.249,-0.015 -0.249,-0.021 -0.25,-0.026 -0.251,-0.033 -0.248,-0.039 -0.246,-0.044 -0.25,-0.051 -0.245,-0.057 -0.245,-0.063 -0.245,-0.069 -0.243,-0.074 -0.241,-0.081 -0.241,-0.087 -0.237,-0.093 -0.222,-0.092 -0.135,-0.06 -0.117,-0.053 -0.115,-0.054 -0.116,-0.056 -0.116,-0.058 -0.116,-0.06 -0.115,-0.061 -0.114,-0.063 -0.113,-0.063 -0.112,-0.066 -0.112,-0.066 -0.113,-0.07 -0.109,-0.069 -0.111,-0.072 -0.11,-0.073 -0.107,-0.074 -0.11,-0.077 -0.108,-0.079 -0.103,-0.076 -0.103,-0.079 -0.107,-0.083 -0.106,-0.086 -0.103,-0.084 -0.1,-0.085 -0.102,-0.089 -0.097,-0.087 -0.101,-0.091 -0.099,-0.094 -0.094,-0.09 -0.083,-0.082 -14.701,-14.702 -0.083,-0.084 -0.089,-0.092 -0.093,-0.099 -0.093,-0.101 -0.089,-0.101 -0.088,-0.101 -0.083,-0.098 -0.086,-0.104 -0.084,-0.105 -0.081,-0.103 -0.08,-0.105 -0.08,-0.108 -0.079,-0.11 -0.074,-0.105 -0.074,-0.107 -0.073,-0.111 -0.072,-0.11 -0.07,-0.11 -0.066,-0.109 -0.071,-0.117 -0.063,-0.111 -0.063,-0.111 -0.064,-0.116 -0.061,-0.115 -0.061,-0.118 -0.056,-0.113 -0.055,-0.113 -0.056,-0.119 -0.054,-0.119 -0.058,-0.132 -0.091,-0.219 -0.094,-0.24 -0.087,-0.242 -0.08,-0.239 -0.076,-0.245 -0.069,-0.245 -0.062,-0.244 -0.056,-0.246 -0.051,-0.246 -0.044,-0.247 -0.039,-0.251 -0.033,-0.25 -0.027,-0.249 -0.02,-0.249 -0.015,-0.249 -0.009,-0.25 -0.003,-0.252 0.003,-0.253 0.009,-0.249 0.014,-0.249 0.021,-0.249 0.027,-0.249 0.033,-0.251 0.039,-0.251 0.044,-0.246 0.051,-0.246 0.056,-0.246 0.063,-0.245 0.069,-0.245 0.075,-0.245 0.08,-0.238 0.087,-0.242 0.094,-0.24 0.092,-0.22 0.057,-0.131 0.054,-0.119 0.056,-0.118 0.055,-0.114 0.056,-0.114 0.06,-0.117 0.063,-0.117 0.063,-0.115 0.063,-0.111 0.063,-0.11 0.071,-0.118 0.067,-0.11 0.068,-0.107 0.073,-0.112 0.074,-0.112 0.073,-0.106 0.074,-0.105 0.078,-0.108 0.081,-0.109 0.081,-0.107 0.08,-0.101 0.084,-0.106 0.086,-0.104 0.082,-0.096 0.089,-0.103 0.091,-0.102 0.09,-0.098 0.094,-0.101 0.089,-0.092 0.081,-0.083 14.699,-14.698 0.082,-0.082 0.099,-0.095 0.098,-0.091 0.1,-0.092 0.1,-0.089 0.097,-0.084 0.104,-0.089 0.104,-0.085 0.102,-0.082 0.105,-0.083 0.105,-0.08 0.108,-0.08 0.104,-0.076 0.108,-0.076 0.111,-0.076 0.108,-0.072 0.109,-0.07 0.111,-0.071 0.113,-0.069 0.112,-0.067 0.11,-0.064 0.117,-0.066 0.114,-0.063 0.111,-0.058 0.118,-0.061 0.117,-0.059 0.115,-0.055 0.113,-0.054 0.119,-0.054 0.135,-0.059 0.221,-0.093 0.239,-0.093 0.24,-0.087 0.241,-0.08 0.243,-0.075 0.245,-0.069 0.245,-0.063 0.247,-0.056 0.246,-0.051 0.247,-0.044 0.249,-0.039 0.251,-0.033 0.249,-0.027 0.248,-0.021 0.251,-0.015 0.251,-0.009 0.251,-0.003 0.25,0.003 0.251,0.009 0.25,0.015 0.249,0.021 0.25,0.027 0.25,0.032 0.248,0.039 0.248,0.045 0.248,0.05 0.246,0.057 0.244,0.063 0.244,0.068 0.244,0.075 0.243,0.081 0.24,0.087 0.236,0.092 0.223,0.093 0.133,0.059 0.117,0.053 0.118,0.055 0.115,0.056 0.116,0.058 0.116,0.06 0.113,0.06 0.114,0.062 0.113,0.064 0.113,0.065 0.113,0.068 0.111,0.068 0.112,0.071 0.108,0.07 0.11,0.073 0.111,0.077 0.106,0.074 0.107,0.078 0.105,0.078 0.105,0.079 0.106,0.083 0.106,0.086 0.101,0.084 0.099,0.083 0.101,0.088 0.102,0.09 0.102,0.094 0.094,0.088 0.096,0.092 0.087,0.086 14.696,14.694 0.082,0.083 0.095,0.099 0.093,0.099 0.087,0.096 0.091,0.101 0.089,0.103 0.083,0.098 0.086,0.104 0.083,0.104 0.08,0.102 0.082,0.108 0.08,0.107 0.079,0.109 0.074,0.106 0.072,0.105 0.075,0.111 0.073,0.113 0.068,0.108 0.067,0.109 0.068,0.113 0.066,0.114 0.066,0.117 0.06,0.111 0.062,0.116 0.061,0.118 0.054,0.108 0.057,0.118 0.058,0.124 0.052,0.113 0.056,0.129 0.094,0.223 0.093,0.24 0.088,0.242 0.08,0.241 0.074,0.242 0.07,0.245 0.061,0.243 0.058,0.248 0.05,0.248 0.044,0.245 0.04,0.25 0.032,0.251 0.027,0.246 0.021,0.252 0.015,0.252 0.008,0.246 0.004,0.253 -0.004,0.252 -0.008,0.247 -0.015,0.252 -0.021,0.252 -0.027,0.246 -0.032,0.251 -0.04,0.25 -0.044,0.244 -0.05,0.249 -0.058,0.248 -0.061,0.242 -0.069,0.246 -0.075,0.242 -0.08,0.241 -0.088,0.242 -0.093,0.24 -0.093,0.222 -0.057,0.129 -0.052,0.115 -0.058,0.123 -0.057,0.117 -0.054,0.109 -0.06,0.117 -0.063,0.117 -0.06,0.111 -0.065,0.115 -0.067,0.115 -0.067,0.113 -0.068,0.11 -0.068,0.108 -0.072,0.111 -0.075,0.112 -0.073,0.106 -0.073,0.105 -0.079,0.109 -0.08,0.107 -0.082,0.108 -0.081,0.103 -0.083,0.104 -0.086,0.104 -0.082,0.097 -0.089,0.103 -0.09,0.101 -0.088,0.096 -0.094,0.1 -0.094,0.098 -0.081,0.082 -14.696,14.7 -0.083,0.082 -0.099,0.095 -0.097,0.092 -0.1,0.091 -0.101,0.089 -0.097,0.085 -0.102,0.087 -0.105,0.087 -0.104,0.083 -0.104,0.081 -0.105,0.081 -0.106,0.078 -0.106,0.077 -0.11,0.077 -0.107,0.074 -0.11,0.073 -0.11,0.072 -0.11,0.069 -0.113,0.07 -0.111,0.066 -0.11,0.064 -0.114,0.064 -0.118,0.065 -0.115,0.061 -0.114,0.059 -0.116,0.058 -0.116,0.056 -0.113,0.053 -0.119,0.054 -0.136,0.06 -0.22,0.092 -0.238,0.093 -0.24,0.087 -0.243,0.081 -0.242,0.074 -0.244,0.069 -0.246,0.063 -0.245,0.057 -0.249,0.051 -0.247,0.044 -0.248,0.039 -0.251,0.033 -0.25,0.026 -0.249,0.021 -0.249,0.015 -0.251,0.009 z m 0,-11.203 13.964,-13.968 -13.965,-13.964 -13.966,13.966 z"
   style="fill:#ffe400"
   id="path176" />
    </g></g></svg>
