<?xml version="1.0" encoding="UTF-8" standalone="no"?>
<!-- Generator: Adobe Illustrator 22.0.1, SVG Export Plug-In . SVG Version: 6.00 Build 0)  -->

<svg
   version="1.1"
   id="Calque_1"
   x="0px"
   y="0px"
   viewBox="0 0 960 960"
   style="enable-background:new 0 0 960 960;"
   xml:space="preserve"
   sodipodi:docname="splash.svg"
   inkscape:version="1.2.2 (b0a8486541, 2022-12-01)"
   inkscape:export-filename="C:\All\Batocera\batocera-assets\logos\joystick-black-title-subtitle-outlined.png"
   inkscape:export-xdpi="192"
   inkscape:export-ydpi="192"
   xmlns:inkscape="http://www.inkscape.org/namespaces/inkscape"
   xmlns:sodipodi="http://sodipodi.sourceforge.net/DTD/sodipodi-0.dtd"
   xmlns="http://www.w3.org/2000/svg"
   xmlns:svg="http://www.w3.org/2000/svg"><defs
   id="defs93">
	
	
	
	
	
	
	
			
	
	
	
	
	
	

<clipPath
   clipPathUnits="userSpaceOnUse"
   id="clipPath1497"><path
     d="M 0,500 H 500 V 0 H 0 Z"
     id="path1495" /></clipPath><clipPath
   clipPathUnits="userSpaceOnUse"
   id="clipPath1517"><path
     d="m 218.667,269.665 h 62.666 v -49.367 h -62.666 z"
     id="path1515" /></clipPath><clipPath
   clipPathUnits="userSpaceOnUse"
   id="clipPath1557"><path
     d="m 239.014,339.461 h 21.972 v -19.254 h -21.972 z"
     id="path1555" /></clipPath><clipPath
   clipPathUnits="userSpaceOnUse"
   id="clipPath1573"><path
     d="m 203.458,244.986 h 22.434 v -17.759 h -22.434 z"
     id="path1571" /></clipPath><clipPath
   clipPathUnits="userSpaceOnUse"
   id="clipPath1589"><path
     d="m 274.108,244.986 h 22.434 v -17.759 h -22.434 z"
     id="path1587" /></clipPath><clipPath
   clipPathUnits="userSpaceOnUse"
   id="clipPath1637"><path
     d="M 0,500 H 500 V 0 H 0 Z"
     id="path1635" /></clipPath></defs><sodipodi:namedview
   id="namedview91"
   pagecolor="#808080"
   bordercolor="#666666"
   borderopacity="1.0"
   inkscape:pageshadow="2"
   inkscape:pageopacity="0"
   inkscape:pagecheckerboard="true"
   showgrid="false"
   inkscape:current-layer="g473"
   inkscape:snap-global="true"
   inkscape:object-paths="false"
   inkscape:snap-nodes="false"
   inkscape:object-nodes="true"
   inkscape:snap-others="false"
   inkscape:snap-intersection-paths="false"
   inkscape:snap-bbox="true"
   inkscape:snap-smooth-nodes="false"
   inkscape:bbox-nodes="true"
   inkscape:showpageshadow="2"
   inkscape:deskcolor="#808080"
   inkscape:zoom="0.88229167"
   inkscape:cx="414.82881"
   inkscape:cy="615.44274"
   inkscape:window-width="1920"
   inkscape:window-height="969"
   inkscape:window-x="0"
   inkscape:window-y="1117"
   inkscape:window-maximized="1" />



<g
   id="g473"
   transform="translate(-480.79734,-110.27931)"><g
     id="g457"
     transform="matrix(0.64,0,0,0.64,591.80637,465.05923)"><text
       xml:space="preserve"
       style="font-size:226.768px;fill:#886eb4;fill-opacity:1;stroke:#886eb4;stroke-width:18.8974;stroke-opacity:1"
       x="535.79095"
       y="634.28125"
       id="text1457"
       inkscape:label="Station"><tspan
         sodipodi:role="line"
         id="tspan1455"
         x="535.79095"
         y="634.28125"
         style="fill:#886eb4;fill-opacity:1;stroke:#886eb4;stroke-width:18.8974;stroke-opacity:1">Station</tspan></text><text
       xml:space="preserve"
       style="font-size:226.768px;fill:#886eb4;fill-opacity:1;stroke:#886eb4;stroke-width:18.8974;stroke-opacity:1"
       x="-137.6048"
       y="634.28125"
       id="text4327"
       inkscape:label="Retr"><tspan
         sodipodi:role="line"
         id="tspan4325"
         x="-137.6048"
         y="634.28125"
         style="fill:#886eb4;fill-opacity:1;stroke:#886eb4;stroke-width:18.8974;stroke-opacity:1">Retr</tspan></text><g
       id="g461"
       transform="matrix(0.27547867,0,0,0.27547867,160.56977,448.48782)"><ellipse
         cx="20.33"
         cy="16"
         rx="1.943"
         ry="1.937"
         id="ellipse759"
         style="display:inline;fill:none;fill-opacity:1;stroke:#886eb4;stroke-opacity:1"
         transform="matrix(25.524553,0,0,25.524553,542.67127,40.951737)" /><ellipse
         cx="25.194"
         cy="16"
         rx="1.943"
         ry="1.937"
         id="ellipse761"
         style="display:inline;fill:none;fill-opacity:1;stroke:#886eb4;stroke-opacity:1"
         transform="matrix(25.524553,0,0,25.524553,542.67127,40.951737)" /><ellipse
         cx="30.056"
         cy="16"
         rx="1.943"
         ry="1.937"
         id="ellipse763"
         style="display:inline;fill:none;fill-opacity:1;stroke:#886eb4;stroke-width:0.99978;stroke-dasharray:none;stroke-opacity:1"
         transform="matrix(25.524553,0,0,25.524553,542.67127,40.951737)" /><path
         d="M 19.916,11.237 19.667,10.803 C 17.791,7.54 14.29,5.514 10.529,5.514 4.724,5.514 0,10.218 0,16 c 0,5.782 4.724,10.485 10.53,10.485 3.762,0 7.263,-2.026 9.138,-5.288 L 19.917,20.763 11.628,16 Z m -9.995,0.928 c -1.071,0 -1.943,-0.869 -1.943,-1.938 0,-1.067 0.872,-1.937 1.943,-1.937 1.072,0 1.944,0.869 1.944,1.937 10e-4,1.069 -0.872,1.938 -1.944,1.938 z"
         id="path765"
         style="display:inline;fill:none;fill-opacity:1;stroke:#886eb4;stroke-opacity:1"
         transform="matrix(25.524553,0,0,25.524553,542.67127,40.951737)" /><ellipse
         cx="9.9209995"
         cy="10.228"
         rx="0.94300002"
         ry="0.93699998"
         id="ellipse767"
         style="display:inline;fill:#44475a;fill-opacity:1;stroke:none;stroke-opacity:1"
         transform="matrix(25.524553,0,0,25.524553,542.67127,40.951737)" /></g></g><g
     id="g470"
     transform="translate(0.79733944,48.521421)"><g
       id="g2458"
       inkscape:label="Logo"
       transform="matrix(2.4918294,0,0,-2.4918294,337.04246,1149.7673)"><g
         id="g1491"
         style="display:inline"><g
           id="g1493"
           clip-path="url(#clipPath1497)"><g
             id="g1499"
             transform="translate(192.25,223.4131)"><path
               d="m 0,0 v -22.883 c 0,-1.634 1.324,-2.958 2.958,-2.958 h 109.584 c 1.634,0 2.958,1.324 2.958,2.958 V 0 c 0,1.634 -1.324,2.958 -2.958,2.958 H 2.958 C 1.324,2.958 0,1.634 0,0"
               style="fill:#afb3b5;fill-opacity:1;fill-rule:nonzero;stroke:none"
               id="path1501" /></g><g
             id="g1503"
             transform="translate(192.25,223.4131)"><path
               d="m 0,0 v -22.883 c 0,-1.634 1.324,-2.958 2.958,-2.958 h 109.584 c 1.634,0 2.958,1.324 2.958,2.958 V 0 c 0,1.634 -1.324,2.958 -2.958,2.958 H 2.958 C 1.324,2.958 0,1.634 0,0 Z"
               style="fill:none;stroke:#263238;stroke-width:2;stroke-linecap:round;stroke-linejoin:round;stroke-miterlimit:10;stroke-dasharray:none;stroke-opacity:1"
               id="path1505" /></g><g
             id="g1507"
             transform="translate(303.3584,220.2979)"><path
               d="m 0,0 h -106.717 c -3.091,0 -5.018,2.753 -4.32,6.073 l 14.653,69.674 c 0.38,1.81 2.484,3.253 4.704,3.253 h 76.644 c 2.22,0 4.323,-1.443 4.704,-3.253 L 4.32,6.073 C 5.019,2.753 3.092,0 0,0"
               style="fill:#ffffff;fill-opacity:1;fill-rule:nonzero;stroke:none"
               id="path1509" /></g><g
             id="g1511"><g
               id="g1513" /><g
               id="g1525"><g
                 clip-path="url(#clipPath1517)"
                 id="g1523"><g
                   transform="translate(250,269.6646)"
                   id="g1521"><path
                     d="m 0,0 h -31.333 l 5.864,-49.367 H 0 25.469 L 31.333,0 Z"
                     style="fill:#cfcfcf;fill-opacity:1;fill-rule:nonzero;stroke:none"
                     id="path1519" /></g></g></g></g><g
             id="g1527"
             transform="translate(303.3584,220.2979)"><path
               d="m 0,0 h -106.717 c -3.091,0 -5.018,2.753 -4.32,6.073 l 14.653,69.674 c 0.38,1.81 2.484,3.253 4.704,3.253 h 76.644 c 2.22,0 4.323,-1.443 4.704,-3.253 L 4.32,6.073 C 5.019,2.753 3.092,0 0,0 Z"
               style="fill:none;stroke:#263238;stroke-width:2;stroke-linecap:round;stroke-linejoin:round;stroke-miterlimit:10;stroke-dasharray:none;stroke-opacity:1"
               id="path1529" /></g><g
             id="g1531"
             transform="translate(281.333,269.6646)"><path
               d="m 0,0 c 0,-11.138 -14.028,-20.167 -31.333,-20.167 -17.305,0 -31.334,9.029 -31.334,20.167 0,11.138 14.029,20.167 31.334,20.167 C -14.028,20.167 0,11.138 0,0"
               style="fill:#5b686f;fill-opacity:1;fill-rule:nonzero;stroke:none"
               id="path1533" /></g><g
             id="g1535"
             transform="translate(281.333,269.6646)"><path
               d="m 0,0 c 0,-11.138 -14.028,-20.167 -31.333,-20.167 -17.305,0 -31.334,9.029 -31.334,20.167 0,11.138 14.029,20.167 31.334,20.167 C -14.028,20.167 0,11.138 0,0 Z"
               style="fill:none;stroke:#263238;stroke-width:2;stroke-linecap:round;stroke-linejoin:round;stroke-miterlimit:10;stroke-dasharray:none;stroke-opacity:1"
               id="path1537" /></g><g
             id="g1539"
             transform="translate(250,285.248)"><path
               d="m 0,0 c 16.101,0 29.357,-7.817 31.126,-17.875 0.133,0.752 0.207,1.516 0.207,2.292 0,11.137 -14.028,20.166 -31.333,20.166 -17.305,0 -31.333,-9.029 -31.333,-20.166 0,-0.776 0.074,-1.54 0.207,-2.292 C -29.357,-7.817 -16.1,0 0,0"
               style="fill:#263238;fill-opacity:1;fill-rule:nonzero;stroke:none"
               id="path1541" /></g><g
             id="g1543"
             transform="translate(250,285.248)"><path
               d="m 0,0 c 16.101,0 29.357,-7.817 31.126,-17.875 0.133,0.752 0.207,1.516 0.207,2.292 0,11.137 -14.028,20.166 -31.333,20.166 -17.305,0 -31.333,-9.029 -31.333,-20.166 0,-0.776 0.074,-1.54 0.207,-2.292 C -29.357,-7.817 -16.1,0 0,0 Z"
               style="fill:none;stroke:#263238;stroke-width:2;stroke-linecap:round;stroke-linejoin:round;stroke-miterlimit:10;stroke-dasharray:none;stroke-opacity:1"
               id="path1545" /></g><g
             id="g1547"
             transform="translate(257.8105,339.4609)"><path
               d="m 0,0 h -7.811 -7.811 l -13.813,-71.657 c -0.143,-1.086 0.263,-2.171 1.095,-2.883 2.751,-2.357 9.771,-7.266 20.529,-7.266 10.759,0 17.779,4.909 20.53,7.266 0.832,0.712 1.238,1.797 1.094,2.883 z"
               style="fill:#becacf;fill-opacity:1;fill-rule:nonzero;stroke:none"
               id="path1549" /></g><g
             id="g1551"><g
               id="g1553" /><g
               id="g1565"><g
                 clip-path="url(#clipPath1557)"
                 id="g1563"><g
                   transform="translate(250,320.207)"
                   id="g1561"><path
                     d="M 0,0 C 3.978,0 7.721,1.009 10.985,2.784 L 7.811,19.254 H 0 -7.811 L -10.986,2.784 C -7.721,1.009 -3.978,0 0,0"
                     style="fill:#cfcfcf;fill-opacity:1;fill-rule:nonzero;stroke:none"
                     id="path1559" /></g></g></g></g><g
             id="g1567"><g
               id="g1569" /><g
               id="g1581"><g
                 clip-path="url(#clipPath1573)"
                 id="g1579"><g
                   transform="translate(225.8916,236.1064)"
                   id="g1577"><path
                     d="m 0,0 c 0,-4.904 -5.022,-8.88 -11.216,-8.88 -6.195,0 -11.217,3.976 -11.217,8.88 0,4.904 5.022,8.88 11.217,8.88 C -5.022,8.88 0,4.904 0,0"
                     style="fill:#cfcfcf;fill-opacity:1;fill-rule:nonzero;stroke:none"
                     id="path1575" /></g></g></g></g><g
             id="g1583"><g
               id="g1585" /><g
               id="g1597"><g
                 clip-path="url(#clipPath1589)"
                 id="g1595"><g
                   transform="translate(296.541,236.1064)"
                   id="g1593"><path
                     d="m 0,0 c 0,-4.904 -5.021,-8.88 -11.216,-8.88 -6.195,0 -11.217,3.976 -11.217,8.88 0,4.904 5.022,8.88 11.217,8.88 C -5.021,8.88 0,4.904 0,0"
                     style="fill:#cfcfcf;fill-opacity:1;fill-rule:nonzero;stroke:none"
                     id="path1591" /></g></g></g></g><g
             id="g1599"
             transform="translate(257.8105,339.4609)"><path
               d="m 0,0 h -7.811 -7.811 l -13.813,-71.657 c -0.143,-1.086 0.263,-2.171 1.095,-2.883 2.751,-2.357 9.771,-7.266 20.529,-7.266 10.759,0 17.779,4.909 20.53,7.266 0.832,0.712 1.238,1.797 1.094,2.883 z"
               style="fill:none;stroke:#263238;stroke-width:2;stroke-linecap:round;stroke-linejoin:round;stroke-miterlimit:10;stroke-dasharray:none;stroke-opacity:1"
               id="path1601" /></g><g
             id="g1603"
             transform="translate(250,265.2778)"><path
               d="m 0,0 c -11.374,0 -18.276,5.345 -20.667,7.502 l -0.957,-4.976 c -0.144,-1.086 0.263,-2.171 1.094,-2.883 2.751,-2.357 9.771,-7.266 20.53,-7.266 10.759,0 17.778,4.909 20.529,7.266 0.832,0.712 1.239,1.797 1.095,2.883 L 20.665,7.482 C 18.275,5.325 11.374,0 0,0"
               style="fill:#ff5555;fill-opacity:1;fill-rule:nonzero;stroke:none"
               id="path1605" /></g></g></g><path
         d="m 226.966,350.391 c 0,-12.721 10.313,-23.034 23.034,-23.034 v 0 c 12.722,0 23.034,10.313 23.034,23.034 v 0 c 0,12.721 -10.312,23.034 -23.034,23.034 v 0 c -12.721,0 -23.034,-10.313 -23.034,-23.034"
         style="display:inline;fill:#ff5555;fill-opacity:1;stroke:none"
         id="path1629"
         inkscape:label="Ball" /><g
         id="g1631"
         style="display:inline"><g
           id="g1633"
           clip-path="url(#clipPath1637)"
           style="display:inline"><g
             id="g1639"
             transform="translate(295.1377,241.793)"><path
               d="m 0,0 c -1.592,3.051 -5.384,5.199 -9.813,5.199 -4.429,0 -8.22,-2.148 -9.813,-5.199 h -0.803 v -3.205 c 0,-4.642 4.753,-8.404 10.616,-8.404 5.864,0 10.617,3.762 10.617,8.404 V 0 Z"
               style="fill:#263238;fill-opacity:1;fill-rule:nonzero;stroke:none"
               id="path1641" /></g><g
             id="g1643"
             transform="translate(264.5625,233.5303)"><path
               d="m 0,0 h -8.875 c -0.828,0 -1.5,0.672 -1.5,1.5 v 2.152 c 0,0.829 0.672,1.5 1.5,1.5 H 0 c 0.828,0 1.5,-0.671 1.5,-1.5 V 1.5 C 1.5,0.672 0.828,0 0,0"
               style="fill:#424242;fill-opacity:1;fill-rule:nonzero;stroke:none"
               id="path1645" /></g><g
             id="g1647"
             transform="translate(244.3125,233.5303)"><path
               d="m 0,0 h -8.875 c -0.829,0 -1.5,0.672 -1.5,1.5 v 2.152 c 0,0.829 0.671,1.5 1.5,1.5 H 0 c 0.829,0 1.5,-0.671 1.5,-1.5 V 1.5 C 1.5,0.672 0.829,0 0,0"
               style="fill:#424242;fill-opacity:1;fill-rule:nonzero;stroke:none"
               id="path1649" /></g><g
             id="g1651"
             transform="translate(264.5625,234.5303)"><path
               d="m 0,0 h -8.875 c -0.828,0 -1.5,0.672 -1.5,1.5 v 2.152 c 0,0.829 0.672,1.5 1.5,1.5 H 0 c 0.828,0 1.5,-0.671 1.5,-1.5 V 1.5 C 1.5,0.672 0.828,0 0,0"
               style="fill:#c2c2c2;fill-opacity:1;fill-rule:nonzero;stroke:none"
               id="path1653" /></g><g
             id="g1655"
             transform="translate(244.3125,234.5303)"><path
               d="m 0,0 h -8.875 c -0.829,0 -1.5,0.672 -1.5,1.5 v 2.152 c 0,0.829 0.671,1.5 1.5,1.5 H 0 c 0.829,0 1.5,-0.671 1.5,-1.5 V 1.5 C 1.5,0.672 0.829,0 0,0"
               style="fill:#c2c2c2;fill-opacity:1;fill-rule:nonzero;stroke:none"
               id="path1657" /></g><g
             id="g1659"
             transform="translate(224.2109,241.7471)"><path
               d="m 0,0 c -1.547,2.965 -5.232,5.053 -9.536,5.053 -4.304,0 -7.988,-2.088 -9.535,-5.053 h -0.781 v -3.114 c 0,-4.511 4.619,-8.167 10.316,-8.167 5.698,0 10.317,3.656 10.317,8.167 V 0 Z"
               style="fill:#263238;fill-opacity:1;fill-rule:nonzero;stroke:none"
               id="path1661" /></g><path
             d="m 241.031,206.639 h -16.5 v 5.333 h 16.5 z"
             style="fill:#263238;fill-opacity:1;fill-rule:nonzero;stroke:none"
             id="path1663" /><path
             d="m 275.469,206.639 h -16.5 v 5.333 h 16.5 z"
             style="fill:#263238;fill-opacity:1;fill-rule:nonzero;stroke:none"
             id="path1665" /><g
             id="g1667"
             transform="translate(250,265.2778)"><path
               d="m 0,0 c -11.374,0 -18.276,5.345 -20.667,7.502 l -0.957,-4.976 c -0.144,-1.086 0.263,-2.171 1.094,-2.883 2.751,-2.357 9.771,-7.266 20.53,-7.266 10.759,0 17.778,4.909 20.529,7.266 0.832,0.712 1.239,1.797 1.095,2.883 L 20.665,7.482 C 18.275,5.325 11.374,0 0,0 Z"
               style="fill:none;stroke:#263238;stroke-width:2;stroke-linecap:round;stroke-linejoin:round;stroke-miterlimit:10;stroke-dasharray:none;stroke-opacity:1"
               id="path1669" /></g><g
             id="g1671"
             transform="translate(273.0342,350.3911)"><path
               d="m 0,0 c 0,-12.721 -10.313,-23.034 -23.034,-23.034 -12.721,0 -23.034,10.313 -23.034,23.034 0,12.721 10.313,23.034 23.034,23.034 C -10.313,23.034 0,12.721 0,0 Z"
               style="fill:none;stroke:#263238;stroke-width:2;stroke-linecap:round;stroke-linejoin:round;stroke-miterlimit:10;stroke-dasharray:none;stroke-opacity:1"
               id="path1673" /></g><g
             id="g1675"
             transform="translate(295.1377,241.793)"><path
               d="m 0,0 c -1.592,3.051 -5.384,5.199 -9.813,5.199 -4.429,0 -8.22,-2.148 -9.813,-5.199 h -0.803 v -3.205 c 0,-4.642 4.753,-8.404 10.616,-8.404 5.864,0 10.617,3.762 10.617,8.404 V 0 Z"
               style="display:inline;fill:none;stroke:#263238;stroke-width:2;stroke-linecap:round;stroke-linejoin:round;stroke-miterlimit:10;stroke-dasharray:none;stroke-opacity:1"
               id="path1677" /></g><g
             id="g1679"
             transform="translate(295.9414,241.793)"><path
               d="m 0,0 c 0,-4.642 -4.753,-8.405 -10.616,-8.405 -5.863,0 -10.616,3.763 -10.616,8.405 0,4.642 4.753,8.404 10.616,8.404 C -4.753,8.404 0,4.642 0,0"
               style="display:inline;fill:#f1fa8c;fill-opacity:1;fill-rule:nonzero;stroke:none"
               id="path1681" /></g><g
             id="g1683"
             transform="translate(295.9414,241.793)"><path
               d="m 0,0 c 0,-4.642 -4.753,-8.405 -10.616,-8.405 -5.863,0 -10.616,3.763 -10.616,8.405 0,4.642 4.753,8.404 10.616,8.404 C -4.753,8.404 0,4.642 0,0 Z"
               style="display:inline;fill:none;stroke:#263238;stroke-width:2;stroke-linecap:round;stroke-linejoin:round;stroke-miterlimit:10;stroke-dasharray:none;stroke-opacity:1"
               id="path1685" /></g><g
             id="g1687"
             transform="translate(264.5625,233.5303)"><path
               d="m 0,0 h -8.875 c -0.828,0 -1.5,0.672 -1.5,1.5 v 2.152 c 0,0.829 0.672,1.5 1.5,1.5 H 0 c 0.828,0 1.5,-0.671 1.5,-1.5 V 1.5 C 1.5,0.672 0.828,0 0,0 Z"
               style="fill:none;stroke:#263238;stroke-width:2;stroke-linecap:round;stroke-linejoin:round;stroke-miterlimit:10;stroke-dasharray:none;stroke-opacity:1"
               id="path1689" /></g><g
             id="g1691"
             transform="translate(244.3125,233.5303)"><path
               d="m 0,0 h -8.875 c -0.829,0 -1.5,0.672 -1.5,1.5 v 2.152 c 0,0.829 0.671,1.5 1.5,1.5 H 0 c 0.829,0 1.5,-0.671 1.5,-1.5 V 1.5 C 1.5,0.672 0.829,0 0,0 Z"
               style="fill:none;stroke:#263238;stroke-width:2;stroke-linecap:round;stroke-linejoin:round;stroke-miterlimit:10;stroke-dasharray:none;stroke-opacity:1"
               id="path1693" /></g><g
             id="g1695"
             transform="translate(264.5625,234.5303)"><path
               d="m 0,0 h -8.875 c -0.828,0 -1.5,0.672 -1.5,1.5 v 2.152 c 0,0.829 0.672,1.5 1.5,1.5 H 0 c 0.828,0 1.5,-0.671 1.5,-1.5 V 1.5 C 1.5,0.672 0.828,0 0,0 Z"
               style="fill:none;stroke:#263238;stroke-width:2;stroke-linecap:round;stroke-linejoin:round;stroke-miterlimit:10;stroke-dasharray:none;stroke-opacity:1"
               id="path1697" /></g><g
             id="g1699"
             transform="translate(244.3125,234.5303)"
             style="display:inline"><path
               d="m 0,0 h -8.875 c -0.829,0 -1.5,0.672 -1.5,1.5 v 2.152 c 0,0.829 0.671,1.5 1.5,1.5 H 0 c 0.829,0 1.5,-0.671 1.5,-1.5 V 1.5 C 1.5,0.672 0.829,0 0,0 Z"
               style="fill:none;stroke:#263238;stroke-width:2;stroke-linecap:round;stroke-linejoin:round;stroke-miterlimit:10;stroke-dasharray:none;stroke-opacity:1"
               id="path1701" /></g><g
             id="g1703"
             transform="translate(224.2109,241.7471)"><path
               d="m 0,0 c -1.547,2.965 -5.232,5.053 -9.536,5.053 -4.304,0 -7.988,-2.088 -9.535,-5.053 h -0.781 v -3.114 c 0,-4.511 4.619,-8.167 10.316,-8.167 5.698,0 10.317,3.656 10.317,8.167 V 0 Z"
               style="fill:none;stroke:#263238;stroke-width:2;stroke-linecap:round;stroke-linejoin:round;stroke-miterlimit:10;stroke-dasharray:none;stroke-opacity:1"
               id="path1705" /></g><g
             id="g1707"
             transform="translate(224.9917,241.7471)"><path
               d="m 0,0 c 0,-4.511 -4.619,-8.167 -10.316,-8.167 -5.698,0 -10.317,3.656 -10.317,8.167 0,4.511 4.619,8.167 10.317,8.167 C -4.619,8.167 0,4.511 0,0 Z"
               style="fill:none;stroke:#263238;stroke-width:2;stroke-linecap:round;stroke-linejoin:round;stroke-miterlimit:10;stroke-dasharray:none;stroke-opacity:1"
               id="path1709" /></g><g
             id="g1711"
             transform="translate(224.2109,241.7471)"><path
               d="m 0,0 c -1.547,2.965 -5.232,5.053 -9.536,5.053 -4.304,0 -7.988,-2.088 -9.535,-5.053 h -0.781 v -3.114 c 0,-4.511 4.619,-8.167 10.316,-8.167 5.698,0 10.317,3.656 10.317,8.167 V 0 Z"
               style="fill:none;stroke:#263238;stroke-width:2;stroke-linecap:round;stroke-linejoin:round;stroke-miterlimit:10;stroke-dasharray:none;stroke-opacity:1"
               id="path1713" /></g><g
             id="g1715"
             transform="translate(224.9917,241.7471)"
             style="display:inline"
             inkscape:label="g1715"><path
               d="m 0,0 c 0,-4.511 -4.619,-8.167 -10.316,-8.167 -5.698,0 -10.317,3.656 -10.317,8.167 0,4.511 4.619,8.167 10.317,8.167 C -4.619,8.167 0,4.511 0,0"
               style="display:inline;fill:#ff5555;fill-opacity:1;fill-rule:nonzero;stroke:none"
               id="path1717" /></g><g
             id="g1719"
             transform="translate(224.9917,241.7471)"
             style="display:inline"><path
               d="m 0,0 c 0,-4.511 -4.619,-8.167 -10.316,-8.167 -5.698,0 -10.317,3.656 -10.317,8.167 0,4.511 4.619,8.167 10.317,8.167 C -4.619,8.167 0,4.511 0,0 Z"
               style="fill:none;stroke:#263238;stroke-width:2;stroke-linecap:round;stroke-linejoin:round;stroke-miterlimit:10;stroke-dasharray:none;stroke-opacity:1"
               id="path1721" /></g><path
             d="m 241.031,206.639 h -16.5 v 5.333 h 16.5 z"
             style="fill:none;stroke:#263238;stroke-width:2;stroke-linecap:round;stroke-linejoin:round;stroke-miterlimit:10;stroke-dasharray:none;stroke-opacity:1"
             id="path1723" /><path
             d="m 275.469,206.639 h -16.5 v 5.333 h 16.5 z"
             style="fill:none;stroke:#263238;stroke-width:2;stroke-linecap:round;stroke-linejoin:round;stroke-miterlimit:10;stroke-dasharray:none;stroke-opacity:1"
             id="path1725" /></g></g></g></g></g></svg>
